<svg xmlns="http://www.w3.org/2000/svg" width="800" height="600" viewBox="0 0 800 600">
  <defs>
    <linearGradient id="sky" x1="0" y1="0" x2="0" y2="1">
      <stop offset="0%" stop-color="#0a0a1a"/>
      <stop offset="60%" stop-color="#1a0a2e"/>
      <stop offset="100%" stop-color="#2d1b4e"/>
    </linearGradient>
  </defs>
  <rect width="800" height="600" fill="url(#sky)"/>
  <!-- stars -->
  <circle cx="100" cy="50" r="1.5" fill="#fff" opacity="0.8"/>
  <circle cx="250" cy="80" r="1" fill="#fff" opacity="0.6"/>
  <circle cx="400" cy="30" r="2" fill="#fff" opacity="0.9"/>
  <circle cx="550" cy="70" r="1" fill="#fff" opacity="0.5"/>
  <circle cx="700" cy="40" r="1.5" fill="#fff" opacity="0.7"/>
  <circle cx="150" cy="120" r="1" fill="#fff" opacity="0.4"/>
  <circle cx="650" cy="100" r="1.5" fill="#fff" opacity="0.6"/>
  <circle cx="350" cy="90" r="1" fill="#fff" opacity="0.5"/>
  <!-- buildings -->
  <rect x="50" y="250" width="80" height="350" fill="#0d0d1a" stroke="#22c55e" stroke-width="0.5" opacity="0.8"/>
  <rect x="140" y="300" width="60" height="300" fill="#0d0d1a" stroke="#22c55e" stroke-width="0.5" opacity="0.8"/>
  <rect x="220" y="200" width="100" height="400" fill="#0d0d1a" stroke="#22c55e" stroke-width="0.5" opacity="0.8"/>
  <rect x="340" y="280" width="70" height="320" fill="#0d0d1a" stroke="#22c55e" stroke-width="0.5" opacity="0.8"/>
  <rect x="430" y="220" width="90" height="380" fill="#0d0d1a" stroke="#22c55e" stroke-width="0.5" opacity="0.8"/>
  <rect x="540" y="310" width="60" height="290" fill="#0d0d1a" stroke="#22c55e" stroke-width="0.5" opacity="0.8"/>
  <rect x="620" y="240" width="110" height="360" fill="#0d0d1a" stroke="#22c55e" stroke-width="0.5" opacity="0.8"/>
  <!-- windows -->
  <g fill="#22c55e" opacity="0.6">
    <rect x="65" y="270" width="8" height="8"/> <rect x="85" y="270" width="8" height="8"/> <rect x="105" y="270" width="8" height="8"/>
    <rect x="65" y="300" width="8" height="8"/> <rect x="105" y="300" width="8" height="8"/>
    <rect x="65" y="330" width="8" height="8"/> <rect x="85" y="330" width="8" height="8"/>
    <rect x="65" y="360" width="8" height="8"/> <rect x="105" y="360" width="8" height="8"/>
    <rect x="235" y="220" width="10" height="10"/> <rect x="260" y="220" width="10" height="10"/> <rect x="285" y="220" width="10" height="10"/>
    <rect x="235" y="250" width="10" height="10"/> <rect x="285" y="250" width="10" height="10"/>
    <rect x="260" y="280" width="10" height="10"/> <rect x="235" y="310" width="10" height="10"/> <rect x="285" y="310" width="10" height="10"/>
    <rect x="235" y="340" width="10" height="10"/> <rect x="260" y="340" width="10" height="10"/>
    <rect x="445" y="240" width="10" height="10"/> <rect x="470" y="240" width="10" height="10"/> <rect x="495" y="240" width="10" height="10"/>
    <rect x="445" y="270" width="10" height="10"/> <rect x="495" y="270" width="10" height="10"/>
    <rect x="470" y="300" width="10" height="10"/> <rect x="445" y="330" width="10" height="10"/>
    <rect x="635" y="260" width="10" height="10"/> <rect x="660" y="260" width="10" height="10"/> <rect x="685" y="260" width="10" height="10"/> <rect x="710" y="260" width="10" height="10"/>
    <rect x="635" y="290" width="10" height="10"/> <rect x="685" y="290" width="10" height="10"/>
    <rect x="660" y="320" width="10" height="10"/> <rect x="710" y="320" width="10" height="10"/>
    <rect x="635" y="350" width="10" height="10"/> <rect x="660" y="350" width="10" height="10"/> <rect x="710" y="350" width="10" height="10"/>
  </g>
  <!-- neon signs -->
  <text x="240" y="195" font-family="monospace" font-size="12" fill="#ff00ff" opacity="0.8">ネオン</text>
  <text x="640" y="235" font-family="monospace" font-size="10" fill="#00ffff" opacity="0.7">OPEN 24H</text>
  <!-- ground glow -->
  <rect x="0" y="580" width="800" height="20" fill="#22c55e" opacity="0.1"/>
  <line x1="0" y1="590" x2="800" y2="590" stroke="#22c55e" stroke-width="0.5" opacity="0.3"/>
</svg>
