<?xml version="1.0" encoding="UTF-8"?>
<svg version="1.1" xmlns="http://www.w3.org/2000/svg" width="256" height="256">
<path d="M0 0 C84.48 0 168.96 0 256 0 C256 84.48 256 168.96 256 256 C171.52 256 87.04 256 0 256 C0 171.52 0 87.04 0 0 Z " fill="#728C87" transform="translate(0,0)"/>
<path d="M0 0 C0.495 2.97 0.495 2.97 1 6 C2.7634375 6.061875 2.7634375 6.061875 4.5625 6.125 C8.14753095 6.54566037 9.81077519 7.42223413 12.375 9.9375 C15.87297993 13.34702527 18.87549771 13.79550301 23.66796875 14.08984375 C26 15 26 15 27.6640625 18.35546875 C29.43509181 21.81913972 31.05498277 22.75353317 34.73046875 23.9609375 C36.54215258 24.45971134 38.36175429 24.93044826 40.1875 25.375 C42.01482653 25.86008599 43.84167779 26.34696713 45.66796875 26.8359375 C46.47516357 27.03751465 47.2823584 27.2390918 48.11401367 27.44677734 C50 28 50 28 51 29 C53.32817964 29.36760731 55.6618385 29.70241581 58 30 C58.28875 31.11375 58.5775 32.2275 58.875 33.375 C61.37283868 39.98484669 66.91326552 45.90945021 73.19921875 49.125 C74.6193994 49.5870181 76.05612202 50.00072518 77.50390625 50.3671875 C80.68001314 51.1723977 83.68325263 52.2853137 86.75 53.4375 C87.81734375 53.82808594 88.8846875 54.21867187 89.984375 54.62109375 C93.14795818 56.06765445 95.47405831 57.61310097 98 60 C98.3125 62.75 98.3125 62.75 98 65 C99.9490625 65.185625 99.9490625 65.185625 101.9375 65.375 C106.71904283 65.83038503 111.32961077 66.91629141 116 68 C116.07414321 72.92957259 116.12859817 77.85882081 116.16479492 82.78881836 C116.17988384 84.4659592 116.20035748 86.14306057 116.22631836 87.82006836 C116.26269811 90.23040504 116.27972486 92.64022019 116.29296875 95.05078125 C116.30845261 95.80087967 116.32393646 96.55097809 116.33988953 97.32380676 C116.34156728 102.51048208 116.34156728 102.51048208 114.60668945 104.99682617 C113 106 113 106 111 106 C111.061875 107.051875 111.12375 108.10375 111.1875 109.1875 C110 113 110 113 107.6953125 114.47265625 C104.82519418 115.74437534 101.9429003 116.90774709 99 118 C92.97429981 120.38754158 90.62750753 123.87397551 87 129 C83.42076327 133.88720472 80.65529485 137.04382199 74.8125 139 C71.19324282 140.19076647 71.19324282 140.19076647 68.6484375 142.875 C68.01568146 144.27426539 67.4155341 145.68881084 66.8515625 147.1171875 C65.58248687 149.92312536 63.44949288 151.20768814 61 153 C60.07993654 154.06283193 59.18439516 155.14730906 58.3125 156.25 C57.1678125 157.61125 57.1678125 157.61125 56 159 C55.34 159 54.68 159 54 159 C52.484375 157.4609375 52.484375 157.4609375 50.75 155.375 C48.49815322 152.70945277 46.22817629 150.20335754 43.6875 147.8125 C41 145 41 145 40.14453125 142.453125 C39.21451692 139.81579194 39.21451692 139.81579194 36.6875 138.77734375 C35.800625 138.50019531 34.91375 138.22304687 34 137.9375 C29.25323794 136.44033813 29.25323794 136.44033813 27.86328125 134.0234375 C27.57839844 133.35570312 27.29351562 132.68796875 27 132 C25.53307535 130.79386196 24.06333769 129.59056364 22.56640625 128.421875 C20.88065137 126.89166359 19.83600642 125.35868984 18.625 123.4375 C14.9999422 118.09835736 9.49208053 116.51387151 3.625 114.4375 C0 113 0 113 -2 110 C-2.268125 109.05125 -2.53625 108.1025 -2.8125 107.125 C-3.80486971 103.87069348 -3.80486971 103.87069348 -6.375 101.625 C-8.77784766 99.22215234 -9.53889306 98.04557049 -10.8125 95.0625 C-12.74183848 90.86520445 -15.35655497 89.0001043 -19.10546875 86.43359375 C-22.57742862 83.80635814 -24.40950167 80.24004649 -26.25 76.375 C-28.44986125 73.38947402 -30.66512954 72.52585806 -34.0625 71.1875 C-36 70 -36 70 -37.3828125 67.421875 C-38.78618441 64.71593401 -38.78618441 64.71593401 -41.7421875 64.390625 C-42.77601562 64.34421875 -43.80984375 64.2978125 -44.875 64.25 C-50.55344157 63.53000621 -50.55344157 63.53000621 -52.546875 61.1640625 C-53.28336677 59.60035171 -53.98117877 58.01798748 -54.64453125 56.421875 C-56.78966675 52.58906806 -60.29092524 50.74241891 -63.98828125 48.5078125 C-67.22813152 44.46900886 -66.36325876 39.98444841 -66 35 C-65.42894531 34.67950684 -64.85789062 34.35901367 -64.26953125 34.02880859 C-52.94274685 27.6653707 -41.65259399 21.24607625 -30.4375 14.6875 C-29.43356201 14.10194336 -28.42962402 13.51638672 -27.39526367 12.91308594 C-23.10314456 10.40807692 -18.81674619 7.8957022 -14.5546875 5.33984375 C-13.58704468 4.76713745 -13.58704468 4.76713745 -12.59985352 4.18286133 C-10.96463238 3.21504093 -9.33550432 2.23694474 -7.70703125 1.2578125 C-4.86586502 -0.06232535 -3.09022819 -0.28247058 0 0 Z " fill="#178370" transform="translate(77,72)"/>
<path d="M0 0 C1.65847884 7.3371104 2.03224258 14.98793903 -1 22 C0.32 22 1.64 22 3 22 C3 15.07 3 8.14 3 1 C3.66 1.33 4.32 1.66 5 2 C5.625 4.5625 5.625 4.5625 6 7 C6.66 6.01 7.32 5.02 8 4 C11.54434427 5.34455698 14.80799193 6.91228344 18.11328125 8.765625 C19.10279785 9.31943848 20.09231445 9.87325195 21.11181641 10.44384766 C22.69615479 11.33789307 22.69615479 11.33789307 24.3125 12.25 C25.40739746 12.86536621 26.50229492 13.48073242 27.63037109 14.11474609 C38.34536125 20.15678018 48.96727159 26.35533332 59.57519531 32.58300781 C62.70410456 34.41146022 65.84869025 36.21047508 69 38 C69 38.33 69 38.66 69 39 C67.906875 39.268125 66.81375 39.53625 65.6875 39.8125 C62.38307337 40.87663739 61.05039578 41.34654664 59 44 C58.62875 43.34 58.2575 42.68 57.875 42 C56.09105222 39.64696955 56.09105222 39.64696955 52.8125 39.75 C51.884375 39.8325 50.95625 39.915 50 40 C51.65 40.99 53.3 41.98 55 43 C54.401875 43.2475 53.80375 43.495 53.1875 43.75 C50.71352479 45.16370012 49.56629745 46.65055383 48 49 C48.66 49 49.32 49 50 49 C50 50.65 50 52.3 50 54 C50.99 53.34 51.98 52.68 53 52 C53.495 54.97 53.495 54.97 54 58 C54.99 55.69 55.98 53.38 57 51 C57.66 51 58.32 51 59 51 C59.98600987 55.10837446 60.13389122 58.96861834 60.125 63.1875 C60.12886719 65.03408203 60.12886719 65.03408203 60.1328125 66.91796875 C60 70 60 70 59 72 C60.98 72.66 62.96 73.32 65 74 C65 73.34 65 72.68 65 72 C64.01 72 63.02 72 62 72 C62 65.73 62 59.46 62 53 C64 55 64 55 65 59 C65 56.03 65 53.06 65 50 C66.32 51.32 67.64 52.64 69 54 C69 52.35 69 50.7 69 49 C69.66 48.67 70.32 48.34 71 48 C69.33045181 44.77595022 69.33045181 44.77595022 66.375 44.3125 C65.59125 44.209375 64.8075 44.10625 64 44 C65.3125 42.5 65.3125 42.5 67 41 C67.99 41 68.98 41 70 41 C70.495 40.01 70.495 40.01 71 39 C74 41 74 41 75 44 C75.99 43.67 76.98 43.34 78 43 C78.33 44.65 78.66 46.3 79 48 C79.33 47.34 79.66 46.68 80 46 C83.875 46.875 83.875 46.875 85 48 C85.12583966 49.934419 85.17578009 51.87402763 85.1875 53.8125 C85.20167969 54.87082031 85.21585938 55.92914063 85.23046875 57.01953125 C85.00615034 59.9204626 84.50196021 61.54818353 83 64 C84.32 63.67 85.64 63.34 87 63 C87.33 58.71 87.66 54.42 88 50 C94.43853896 53.11542208 94.43853896 53.11542208 97.62109375 54.76171875 C99.90914217 55.94369134 102.20175872 57.09591041 104.52783203 58.20166016 C120.0275348 65.5935607 120.0275348 65.5935607 122.3828125 71.421875 C122.55581786 76.5197662 121.96218862 79.76290035 118.8125 83.8125 C117.884375 84.534375 116.95625 85.25625 116 86 C115.22016503 87.40046487 114.47188659 88.81880323 113.75 90.25 C111.6418575 93.83250799 111.6418575 93.83250799 108.859375 94.55859375 C107.28236485 94.6447549 105.70388171 94.70714108 104.125 94.74609375 C100.69143402 95.15635439 99.25971666 97.51431168 97 100 C95.53586719 100.73890815 94.05475425 101.44467111 92.5625 102.125 C87.4776302 104.76779417 86.07289249 108.25459886 83.67578125 113.28515625 C81.24958559 117.21570633 77.99892037 119.03472923 74.140625 121.4375 C71.26831182 123.53407897 70.63928902 125.56382153 70 129 C69.34 129.66 68.68 130.32 68 131 C67.67 120.44 67.34 109.88 67 99 C61.17147342 97.92410036 61.17147342 97.92410036 55.33251953 96.90771484 C53.07672293 96.44954528 51.08780386 95.97834555 49 95 C47.7109375 92.015625 47.7109375 92.015625 47 89 C44.99926614 87.36049348 44.99926614 87.36049348 42.5 86.375 C41.60796875 85.97410156 40.7159375 85.57320313 39.796875 85.16015625 C38.87390625 84.77730469 37.9509375 84.39445312 37 84 C36.11828125 83.62746094 35.2365625 83.25492187 34.328125 82.87109375 C30.93369763 81.4773213 27.61465794 80.16450898 24.06640625 79.21484375 C20.34618279 77.74097178 17.93448585 75.5610445 15.1875 72.75 C14.69830078 72.28464844 14.20910156 71.81929688 13.70507812 71.33984375 C10.43647016 68.05767309 9.30657989 65.60551128 9 61 C8.01 60.896875 7.02 60.79375 6 60.6875 C2.58739498 60.19804271 -0.42015711 59.18124934 -3.6171875 57.87109375 C-6.11717915 56.91303141 -6.11717915 56.91303141 -9.2578125 56.16015625 C-18.40943869 53.77500088 -18.40943869 53.77500088 -20.30078125 51.29296875 C-20.55214844 50.68066406 -20.80351563 50.06835938 -21.0625 49.4375 C-22.61358629 45.79907646 -22.61358629 45.79907646 -25.7109375 45.05859375 C-27.85934873 44.60342188 -30.01185131 44.16714485 -32.16796875 43.75 C-35.86083768 42.77202643 -37.41635963 40.72717595 -40 38 C-42.69656097 37.32585976 -45.20908024 37.18606132 -48 37 C-49 36 -49 36 -49.0625 32.4375 C-49.041875 31.303125 -49.02125 30.16875 -49 29 C-49.66 28.67 -50.32 28.34 -51 28 C-47.68936862 26.16327681 -44.37619334 24.33119238 -41.0625 22.5 C-40.11697266 21.97535156 -39.17144531 21.45070313 -38.19726562 20.91015625 C-36.84858398 20.16572266 -36.84858398 20.16572266 -35.47265625 19.40625 C-34.64000244 18.94541016 -33.80734863 18.48457031 -32.94946289 18.00976562 C-31 17 -31 17 -30 17 C-29.97287934 18.43739513 -29.95354933 19.87493863 -29.9375 21.3125 C-29.92589844 22.11300781 -29.91429688 22.91351563 -29.90234375 23.73828125 C-30 26 -30 26 -31 29 C-29.68 29 -28.36 29 -27 29 C-27 25.04 -27 21.08 -27 17 C-26.01 16.67 -25.02 16.34 -24 16 C-23.67 16.99 -23.34 17.98 -23 19 C-22.01 17.02 -21.02 15.04 -20 13 C-19.67 13 -19.34 13 -19 13 C-18.875 18.75 -18.875 18.75 -20 21 C-19.34 21.33 -18.68 21.66 -18 22 C-18 24.97 -18 27.94 -18 31 C-16.68 30.67 -15.36 30.34 -14 30 C-14 29.34 -14 28.68 -14 28 C-14.66 28 -15.32 28 -16 28 C-16 25.69 -16 23.38 -16 21 C-15.34 20.67 -14.68 20.34 -14 20 C-13.34227572 16.97065509 -13.34227572 16.97065509 -13 14 C-12.34 14.33 -11.68 14.66 -11 15 C-10.19032562 12.08517222 -9.78154007 10.53886783 -10.9375 7.6875 C-11.288125 7.130625 -11.63875 6.57375 -12 6 C-10.35 5.34 -8.7 4.68 -7 4 C-6.505 4.99 -6.505 4.99 -6 6 C-5.71125 5.195625 -5.4225 4.39125 -5.125 3.5625 C-3.81204892 0.57188921 -3.2474503 0 0 0 Z " fill="#D1B062" transform="translate(126,42)"/>
<path d="M0 0 C0.33 1.98 0.66 3.96 1 6 C2.175625 6.04125 3.35125 6.0825 4.5625 6.125 C8.14753095 6.54566037 9.81077519 7.42223413 12.375 9.9375 C15.87297993 13.34702527 18.87549771 13.79550301 23.66796875 14.08984375 C26 15 26 15 27.6640625 18.35546875 C29.43509181 21.81913972 31.05498277 22.75353317 34.73046875 23.9609375 C36.54215258 24.45971134 38.36175429 24.93044826 40.1875 25.375 C42.01482653 25.86008599 43.84167779 26.34696713 45.66796875 26.8359375 C46.47516357 27.03751465 47.2823584 27.2390918 48.11401367 27.44677734 C50 28 50 28 51 29 C53.32817964 29.36760731 55.6618385 29.70241581 58 30 C58.28875 31.11375 58.5775 32.2275 58.875 33.375 C61.37283868 39.98484669 66.91326552 45.90945021 73.19921875 49.125 C74.6193994 49.5870181 76.05612202 50.00072518 77.50390625 50.3671875 C80.68001314 51.1723977 83.68325263 52.2853137 86.75 53.4375 C87.81734375 53.82808594 88.8846875 54.21867187 89.984375 54.62109375 C93.14795818 56.06765445 95.47405831 57.61310097 98 60 C98.3125 62.75 98.3125 62.75 98 65 C99.9490625 65.185625 99.9490625 65.185625 101.9375 65.375 C106.71849952 65.89863328 111.33114101 66.86313835 116 68 C116 68.99 116 69.98 116 71 C110.28970043 75.77874646 103.11694975 79.0816968 96.5 82.4375 C95.80583984 82.79158936 95.11167969 83.14567871 94.39648438 83.51049805 C91.42007462 84.98446348 89.36568798 86 86 86 C86 85.34 86 84.68 86 84 C84.081875 83.814375 84.081875 83.814375 82.125 83.625 C68.67019505 82.11346337 68.67019505 82.11346337 64 79 C61.26127045 78.54227937 61.26127045 78.54227937 58.3125 78.375 C57.31863281 78.30023438 56.32476562 78.22546875 55.30078125 78.1484375 C54.54152344 78.09945312 53.78226562 78.05046875 53 78 C52.87109375 77.360625 52.7421875 76.72125 52.609375 76.0625 C52.21602906 73.85567555 52.21602906 73.85567555 50.25 73 C49.5075 72.67 48.765 72.34 48 72 C46.88625 71.071875 46.88625 71.071875 45.75 70.125 C42.87421811 67.9028049 40.09114526 66.54764157 36.76953125 65.125 C35 64 35 64 34.0390625 61.93359375 C33.17838945 59.79347956 33.17838945 59.79347956 30.94140625 59.34765625 C30.15636719 59.25355469 29.37132812 59.15945312 28.5625 59.0625 C26.09765625 58.625 26.09765625 58.625 24 58 C22.98133771 56.34467377 21.98189187 54.67739862 21 53 C18.77818513 52.05028306 16.53993097 51.41305646 14.21875 50.74609375 C10.61157305 49.53311699 8.14346632 47.29681748 5.66015625 44.48046875 C3.64378536 42.68234036 1.88675844 42.09596996 -0.6875 41.3125 C-1.89986328 40.93544922 -1.89986328 40.93544922 -3.13671875 40.55078125 C-3.75160156 40.36902344 -4.36648437 40.18726563 -5 40 C-5 38.02 -5 36.04 -5 34 C-6.19496094 33.85304688 -6.19496094 33.85304688 -7.4140625 33.703125 C-18.65438374 32.11689962 -18.65438374 32.11689962 -23 28 C-24.1875 24.875 -24.1875 24.875 -25 22 C-25.99 21.34 -26.98 20.68 -28 20 C-28.6875 16.875 -28.6875 16.875 -29 14 C-28.10539062 13.49210937 -27.21078125 12.98421875 -26.2890625 12.4609375 C-25.06770414 11.76563237 -23.84635029 11.07031931 -22.625 10.375 C-21.98957275 10.01470703 -21.35414551 9.65441406 -20.69946289 9.28320312 C-16.1047973 6.66661141 -11.61445222 3.91860318 -7.18359375 1.03125 C-4.62691088 -0.17619951 -2.79443833 -0.19644558 0 0 Z " fill="#18A188" transform="translate(77,72)"/>
<path d="M0 0 C4.18068101 1.27447124 7.76744927 2.84681318 11.53515625 5.0546875 C12.58155273 5.66376953 13.62794922 6.27285156 14.70605469 6.90039062 C16.36749512 7.87782227 16.36749512 7.87782227 18.0625 8.875 C19.22389263 9.55210378 20.38568156 10.22852823 21.54785156 10.90429688 C23.90382442 12.27477354 26.25845907 13.64749781 28.61181641 15.02246094 C41.22975497 22.38701652 53.80790353 29.70326824 67 36 C67 36.66 67 37.32 67 38 C67.65226562 38.23589844 68.30453125 38.47179687 68.9765625 38.71484375 C72.93589964 40.39781781 76.62533192 42.45978558 80.375 44.5625 C81.56657715 45.22741455 81.56657715 45.22741455 82.78222656 45.90576172 C88.44012019 49.0805566 94.0206356 52.36858204 99.57104492 55.72680664 C103.92055054 58.35765548 108.28785859 60.95375084 112.6875 63.5 C113.80511719 64.1496875 114.92273438 64.799375 116.07421875 65.46875 C119.38911032 67.31033447 119.38911032 67.31033447 123 68 C125.29778814 66.79002811 125.29778814 66.79002811 127.5625 64.9375 C132.01597412 61.64008996 136.55049404 58.94154139 141.4453125 56.35546875 C143.68858018 55.16523345 145.87711275 53.91718955 148.0625 52.625 C151 51 151 51 153 51 C153 55.29 153 59.58 153 64 C151.35 63.67 149.7 63.34 148 63 C146.39696373 62.93628632 144.79162328 62.91355786 143.1875 62.9375 C142.39730469 62.94652344 141.60710937 62.95554688 140.79296875 62.96484375 C140.20128906 62.97644531 139.60960937 62.98804688 139 63 C137.88795305 65.17333656 136.90287089 67.26548622 136.0625 69.5625 C134.96702364 72.07565165 133.90445838 73.09554162 132 75 C128.7343016 80.14975516 128.34054408 85.05809301 128 91 C129.2065625 91.4640625 129.2065625 91.4640625 130.4375 91.9375 C133 93 133 93 134 94 C139.24656397 94.41149521 142.57642446 93.88494057 147 91 C149.20110796 89.0818108 150.36372626 87.52878669 152 85 C151.95367452 81.70590396 151.95367452 81.70590396 151 79 C151.99 78.67 152.98 78.34 154 78 C155.19340342 88.72405577 155.19340342 88.72405577 152.5703125 93.7265625 C148.35641344 98.78662603 144.34397015 100.87182592 138.19140625 102.91015625 C134.90055408 104.54678326 134.15708374 106.81068043 132.8515625 110.1171875 C131.58248687 112.92312536 129.44949288 114.20768814 127 116 C126.07993654 117.06283193 125.18439516 118.14730906 124.3125 119.25 C123.1678125 120.61125 123.1678125 120.61125 122 122 C121.34 122 120.68 122 120 122 C118.484375 120.4609375 118.484375 120.4609375 116.75 118.375 C114.49815322 115.70945277 112.22817629 113.20335754 109.6875 110.8125 C107 108 107 108 106.14453125 105.453125 C105.21451692 102.81579194 105.21451692 102.81579194 102.6875 101.77734375 C101.3571875 101.36162109 101.3571875 101.36162109 100 100.9375 C95.25323794 99.44033813 95.25323794 99.44033813 93.86328125 97.0234375 C93.57839844 96.35570312 93.29351562 95.68796875 93 95 C91.53307535 93.79386196 90.06333769 92.59056364 88.56640625 91.421875 C86.88065137 89.89166359 85.83600642 88.35868984 84.625 86.4375 C80.9999422 81.09835736 75.49208053 79.51387151 69.625 77.4375 C66 76 66 76 64 73 C63.731875 72.05125 63.46375 71.1025 63.1875 70.125 C62.19513029 66.87069348 62.19513029 66.87069348 59.625 64.625 C57.22215234 62.22215234 56.46110694 61.04557049 55.1875 58.0625 C53.25816152 53.86520445 50.64344503 52.0001043 46.89453125 49.43359375 C43.42257138 46.80635814 41.59049833 43.24004649 39.75 39.375 C37.55013875 36.38947402 35.33487046 35.52585806 31.9375 34.1875 C30 33 30 33 28.6171875 30.421875 C27.21381559 27.71593401 27.21381559 27.71593401 24.2578125 27.390625 C23.22398438 27.34421875 22.19015625 27.2978125 21.125 27.25 C15.44655843 26.53000621 15.44655843 26.53000621 13.453125 24.1640625 C12.71764787 22.60250598 12.01971077 21.02285036 11.35546875 19.4296875 C9.63420882 16.34431668 7.57423596 15.00501326 4.6875 13 C0.17670493 9.68540096 0.17670493 9.68540096 -0.64453125 6.5 C-0.62693776 4.24803294 -0.45875578 2.20202772 0 0 Z " fill="#0C6C5A" transform="translate(11,109)"/>
<path d="M0 0 C0.99 0 1.98 0 3 0 C3 1.98 3 3.96 3 6 C7.29 5.34 11.58 4.68 16 4 C16.66 5.65 17.32 7.3 18 9 C20.48644886 10.42665098 22.74716113 11.54997501 25.375 12.625 C29.58728999 14.41643367 33.35806356 16.19351891 37 19 C38.216875 19.33 39.43375 19.66 40.6875 20 C41.780625 20.33 42.87375 20.66 44 21 C44.495 22.485 44.495 22.485 45 24 C47.01508358 24.73323796 47.01508358 24.73323796 49 25 C49 25.66 49 26.32 49 27 C52.62714759 29.00032624 56.02541611 29.65731237 60.07421875 30.33984375 C60.70972656 30.55769531 61.34523437 30.77554688 62 31 C62.495 32.485 62.495 32.485 63 34 C68.02527848 39.72323382 72.81261617 41.02699267 80 43 C79.67 44.65 79.34 46.3 79 48 C79.71285156 47.835 80.42570312 47.67 81.16015625 47.5 C84.26539366 46.96504658 86.85901312 46.67070299 90 47 C92.98262099 49.25797011 94.84924425 51.97765519 97 55 C99.41752216 56.20876108 101.11840559 56.10267844 103.8125 56.1875 C106.5625 56.42578125 106.5625 56.42578125 109 57 C111.3125 59.875 111.3125 59.875 112.375 61.5 C116.09961948 64.93811029 122.14881399 65.1902852 127 66 C127.99 64.02 127.99 64.02 129 62 C129.66 62 130.32 62 131 62 C131.66 61.01 132.32 60.02 133 59 C134.73227963 58.28094053 136.46631353 57.56530646 138.21484375 56.88671875 C140.29569254 55.98460553 140.29569254 55.98460553 142.375 53.4375 C145.08503773 50.92103639 145.64737678 50.68294652 149.0625 50.125 C154.61919334 49.18795222 158.85447879 46.39306237 163.59375 43.4609375 C166 42 166 42 167 42 C167.78996865 53.00689655 167.78996865 53.00689655 164.8125 56.75 C163.884375 57.4925 162.95625 58.235 162 59 C161.22131055 60.40110213 160.47289922 61.81931444 159.75 63.25 C157.6418575 66.83250799 157.6418575 66.83250799 154.859375 67.55859375 C153.28236485 67.6447549 151.70388171 67.70714108 150.125 67.74609375 C146.69143402 68.15635439 145.25971666 70.51431168 143 73 C141.53586719 73.73890815 140.05475425 74.44467111 138.5625 75.125 C133.4776302 77.76779417 132.07289249 81.25459886 129.67578125 86.28515625 C127.24958559 90.21570633 123.99892037 92.03472923 120.140625 94.4375 C117.26831182 96.53407897 116.63928902 98.56382153 116 102 C115.34 102.66 114.68 103.32 114 104 C113.67 93.44 113.34 82.88 113 72 C107.17147342 70.92410036 107.17147342 70.92410036 101.33251953 69.90771484 C99.07672293 69.44954528 97.08780386 68.97834555 95 68 C93.7109375 65.015625 93.7109375 65.015625 93 62 C90.99926614 60.36049348 90.99926614 60.36049348 88.5 59.375 C87.60796875 58.97410156 86.7159375 58.57320312 85.796875 58.16015625 C84.87390625 57.77730469 83.9509375 57.39445312 83 57 C82.11828125 56.62746094 81.2365625 56.25492188 80.328125 55.87109375 C76.93369763 54.4773213 73.61465794 53.16450898 70.06640625 52.21484375 C66.34618279 50.74097178 63.93448585 48.5610445 61.1875 45.75 C60.69830078 45.28464844 60.20910156 44.81929687 59.70507812 44.33984375 C56.43647016 41.05767309 55.30657989 38.60551128 55 34 C54.01 33.896875 53.02 33.79375 52 33.6875 C48.58739498 33.19804271 45.57984289 32.18124934 42.3828125 30.87109375 C39.88282085 29.91303141 39.88282085 29.91303141 36.7421875 29.16015625 C27.59056131 26.77500088 27.59056131 26.77500088 25.69921875 24.29296875 C25.44785156 23.68066406 25.19648437 23.06835938 24.9375 22.4375 C23.38641371 18.79907646 23.38641371 18.79907646 20.2890625 18.05859375 C18.14065127 17.60342188 15.98814869 17.16714485 13.83203125 16.75 C10.13916232 15.77202643 8.58364037 13.72717595 6 11 C3.27391541 10.28369422 0.83802849 10.14430653 -2 10 C-2.1953125 3.9453125 -2.1953125 3.9453125 -2 2 C-1.34 1.34 -0.68 0.68 0 0 Z " fill="#C89D2D" transform="translate(80,69)"/>
<path d="M0 0 C0.33 1.98 0.66 3.96 1 6 C2.175625 6.04125 3.35125 6.0825 4.5625 6.125 C8.14753095 6.54566037 9.81077519 7.42223413 12.375 9.9375 C15.87297993 13.34702527 18.87549771 13.79550301 23.66796875 14.08984375 C26 15 26 15 27.6640625 18.35546875 C29.43509181 21.81913972 31.05498277 22.75353317 34.73046875 23.9609375 C36.54215258 24.45971134 38.36175429 24.93044826 40.1875 25.375 C42.01482653 25.86008599 43.84167779 26.34696713 45.66796875 26.8359375 C46.47516357 27.03751465 47.2823584 27.2390918 48.11401367 27.44677734 C50 28 50 28 51 29 C53.32817964 29.36760731 55.6618385 29.70241581 58 30 C58.28875 31.11375 58.5775 32.2275 58.875 33.375 C61.37283868 39.98484669 66.91326552 45.90945021 73.19921875 49.125 C74.6193994 49.5870181 76.05612202 50.00072518 77.50390625 50.3671875 C80.68001314 51.1723977 83.68325263 52.2853137 86.75 53.4375 C87.81734375 53.82808594 88.8846875 54.21867187 89.984375 54.62109375 C93.14795818 56.06765445 95.47405831 57.61310097 98 60 C98.3125 62.75 98.3125 62.75 98 65 C99.9490625 65.185625 99.9490625 65.185625 101.9375 65.375 C106.71849952 65.89863328 111.33114101 66.86313835 116 68 C116 68.99 116 69.98 116 71 C112.37638702 74.18778324 108.56682098 76.44190814 104 78 C100.0013433 77.23061077 97.21613105 75.43540358 94 73 C93.2471875 72.48179687 92.494375 71.96359375 91.71875 71.4296875 C91.1515625 70.95789063 90.584375 70.48609375 90 70 C90 69.34 90 68.68 90 68 C89.113125 67.773125 88.22625 67.54625 87.3125 67.3125 C84 66 84 66 81.94921875 63.67578125 C77.90884143 60.01000845 73.59859898 58.6493405 68.5 56.875 C56.43624454 52.57718341 56.43624454 52.57718341 53 50 C53 49.34 53 48.68 53 48 C52.34 48 51.68 48 51 48 C50.67 47.01 50.34 46.02 50 45 C47.95743436 43.45116956 47.95743436 43.45116956 45.4375 42.0625 C44.53773437 41.53914063 43.63796875 41.01578125 42.7109375 40.4765625 C39.76723501 38.87322022 36.78174596 37.44912513 33.69140625 36.15234375 C32 35 32 35 30.7265625 32.52734375 C28.38109181 29.09404163 25.64662543 28.61109221 21.8125 27.625 C15.08409155 25.66211143 10.86143094 22.96737011 6 18 C1.7478189 13.78841252 -3.95626672 13.9319376 -9.62109375 13.27148438 C-10.40871094 13.16255859 -11.19632812 13.05363281 -12.0078125 12.94140625 C-12.72598145 12.85576416 -13.44415039 12.77012207 -14.18408203 12.68188477 C-16 12 -16 12 -17.24951172 9.94116211 C-17.49717285 9.30057861 -17.74483398 8.65999512 -18 8 C-15.94563118 6.65247843 -13.88302655 5.32227801 -11.8125 4 C-11.23435547 3.6184375 -10.65621094 3.236875 -10.06054688 2.84375 C-6.56578821 0.63237729 -4.15517992 -0.50081265 0 0 Z " fill="#1BBFA0" transform="translate(77,72)"/>
<path d="M0 0 C2 2 2 2 2 5 C2.66 5 3.32 5 4 5 C4.12375 4.38125 4.2475 3.7625 4.375 3.125 C5 1 5 1 7 -1 C11.95598056 -1.75436164 15.8650866 -1.72634458 20.125 1 C21.053125 1.99 21.053125 1.99 22 3 C22.5259375 2.01 22.5259375 2.01 23.0625 1 C25 -1 25 -1 28.6875 -1.25 C29.780625 -1.1675 30.87375 -1.085 32 -1 C32.495 -0.01 32.495 -0.01 33 1 C31.35 1.66 29.7 2.32 28 3 C28.969375 3.5775 29.93875 4.155 30.9375 4.75 C34 7 34 7 34.875 9.25 C34.91625 9.8275 34.9575 10.405 35 11 C34.34 11.33 33.68 11.66 33 12 C33 13.65 33 15.3 33 17 C31.68 15.68 30.36 14.36 29 13 C28.95101562 13.63808594 28.90203125 14.27617188 28.8515625 14.93359375 C28.77679688 15.75988281 28.70203125 16.58617188 28.625 17.4375 C28.55539063 18.26121094 28.48578125 19.08492187 28.4140625 19.93359375 C28.27742188 20.61550781 28.14078125 21.29742187 28 22 C27.01 22.495 27.01 22.495 26 23 C25.505 20.03 25.505 20.03 25 17 C25 23.93 25 30.86 25 38 C23.35 37.67 21.7 37.34 20 37 C20.24556641 35.77410156 20.24556641 35.77410156 20.49609375 34.5234375 C21.06974606 30.51231824 21.11001604 26.66751879 21.0625 22.625 C21.05798828 21.88894531 21.05347656 21.15289062 21.04882812 20.39453125 C21.03715142 18.59631842 21.01922011 16.79814803 21 15 C19.68 15.33 18.36 15.66 17 16 C16.67 18.31 16.34 20.62 16 23 C15.34 21.68 14.68 20.36 14 19 C12.02 19.99 12.02 19.99 10 21 C10.37125 21.9075 10.7425 22.815 11.125 23.75 C12 27 12 27 11.125 29.375 C10.75375 29.91125 10.3825 30.4475 10 31 C9.67 30.67 9.34 30.34 9 30 C8.34 31.98 7.68 33.96 7 36 C6.34 36 5.68 36 5 36 C5 38.31 5 40.62 5 43 C5.66 43 6.32 43 7 43 C7 43.66 7 44.32 7 45 C5.35 45.66 3.7 46.32 2 47 C2.33 43.7 2.66 40.4 3 37 C1.515 36.505 1.515 36.505 0 36 C0.33 33.69 0.66 31.38 1 29 C0.34 31.31 -0.32 33.62 -1 36 C-1.45375 35.34 -1.9075 34.68 -2.375 34 C-2.91125 33.34 -3.4475 32.68 -4 32 C-4.66 32 -5.32 32 -6 32 C-6 35.96 -6 39.92 -6 44 C-7.32 44 -8.64 44 -10 44 C-9.99476318 43.44014404 -9.98952637 42.88028809 -9.98413086 42.3034668 C-9.96333309 39.76482263 -9.95033096 37.22619641 -9.9375 34.6875 C-9.92912109 33.80642578 -9.92074219 32.92535156 -9.91210938 32.01757812 C-9.90888672 31.17001953 -9.90566406 30.32246094 -9.90234375 29.44921875 C-9.89710693 28.66893311 -9.89187012 27.88864746 -9.88647461 27.0847168 C-9.91862137 24.8038445 -9.91862137 24.8038445 -11 22 C-11.66 24.97 -12.32 27.94 -13 31 C-13.66 31 -14.32 31 -15 31 C-15.33 28.36 -15.66 25.72 -16 23 C-16.99 23.66 -17.98 24.32 -19 25 C-19 23.35 -19 21.7 -19 20 C-19.66 20 -20.32 20 -21 20 C-19.79618552 17.50638429 -18.54571278 15.31856917 -17 13 C-17.99 12.34 -18.98 11.68 -20 11 C-19 10 -19 10 -15.4375 9.9375 C-14.303125 9.958125 -13.16875 9.97875 -12 10 C-11.34 11.32 -10.68 12.64 -10 14 C-9.34 14 -8.68 14 -8 14 C-7.67 12.68 -7.34 11.36 -7 10 C-7.99 10.33 -8.98 10.66 -10 11 C-9.45773019 7.20411134 -7.79872437 5.52788007 -5 3 C-6.32 2.67 -7.64 2.34 -9 2 C-9 1.34 -9 0.68 -9 0 C-5.88135455 -1.55932272 -3.33704665 -0.65549131 0 0 Z " fill="#559043" transform="translate(105,27)"/>
<path d="M0 0 C0.78996865 11.00689655 0.78996865 11.00689655 -2.1875 14.75 C-3.5796875 15.86375 -3.5796875 15.86375 -5 17 C-5.77868945 18.40110213 -6.52710078 19.81931444 -7.25 21.25 C-9.3581425 24.83250799 -9.3581425 24.83250799 -12.140625 25.55859375 C-13.71763515 25.6447549 -15.29611829 25.70714108 -16.875 25.74609375 C-20.30856598 26.15635439 -21.74028334 28.51431168 -24 31 C-25.46413281 31.73890815 -26.94524575 32.44467111 -28.4375 33.125 C-33.5223698 35.76779417 -34.92710751 39.25459886 -37.32421875 44.28515625 C-39.75041441 48.21570633 -43.00107963 50.03472923 -46.859375 52.4375 C-49.73168818 54.53407897 -50.36071098 56.56382153 -51 60 C-51.66 60.66 -52.32 61.32 -53 62 C-53 51.44 -53 40.88 -53 30 C-51.02 29.01 -49.04 28.02 -47 27 C-45.59533047 24.94906855 -45.59533047 24.94906855 -45 23 C-43.35 23.33 -41.7 23.66 -40 24 C-39.34 22.68 -38.68 21.36 -38 20 C-37.34 20 -36.68 20 -36 20 C-35.34 19.01 -34.68 18.02 -34 17 C-32.26772037 16.28094053 -30.53368647 15.56530646 -28.78515625 14.88671875 C-26.70430746 13.98460553 -26.70430746 13.98460553 -24.625 11.4375 C-21.91496227 8.92103639 -21.35262322 8.68294652 -17.9375 8.125 C-12.38080666 7.18795222 -8.14552121 4.39306237 -3.40625 1.4609375 C-1 0 -1 0 0 0 Z " fill="#BB9337" transform="translate(247,111)"/>
<path d="M0 0 C1.65847884 7.3371104 2.03224258 14.98793903 -1 22 C0.32 22 1.64 22 3 22 C3 15.07 3 8.14 3 1 C3.66 1.33 4.32 1.66 5 2 C4.67 8.27 4.34 14.54 4 21 C5.32 21.66 6.64 22.32 8 23 C8.33 23.66 8.66 24.32 9 25 C9.66 24.34 10.32 23.68 11 23 C13 26 13 26 13 29 C13.66 29 14.32 29 15 29 C15 30.32 15 31.64 15 33 C17.97 32.505 17.97 32.505 21 32 C19.16172132 28.84866512 17.24027294 25.88035092 15 23 C20.75 23.75 20.75 23.75 23 26 C23.66 24.68 24.32 23.36 25 22 C25.598125 22.474375 26.19625 22.94875 26.8125 23.4375 C29.00382924 25.16465744 29.00382924 25.16465744 32 26 C33.125 31.75 33.125 31.75 32 34 C33.65 33.01 35.3 32.02 37 31 C37.495 32.485 37.495 32.485 38 34 C36.5 36.6875 36.5 36.6875 34 39 C30.25 39.3125 30.25 39.3125 27 39 C27 39.66 27 40.32 27 41 C28.65 41.66 30.3 42.32 32 43 C32 43.99 32 44.98 32 46 C28.80813973 48.88297057 25.46651781 51.03188082 21.125 50.9375 C19 50 19 50 17 48 C17.66 47.34 18.32 46.68 19 46 C18.071875 46.226875 17.14375 46.45375 16.1875 46.6875 C15.135625 46.790625 14.08375 46.89375 13 47 C12.01 46.01 11.02 45.02 10 44 C12.31 42.35 14.62 40.7 17 39 C14.03 38.67 11.06 38.34 8 38 C7.67 39.65 7.34 41.3 7 43 C5.10590022 43.22354607 3.2095652 43.42819951 1.3125 43.625 C0.25675781 43.74101563 -0.79898438 43.85703125 -1.88671875 43.9765625 C-5.20012887 44.00150662 -7.1018341 43.57343508 -10 42 C-10.66 41.01 -11.32 40.02 -12 39 C-10.35 39.33 -8.7 39.66 -7 40 C-7.33 39.34 -7.66 38.68 -8 38 C-6.02 37.505 -6.02 37.505 -4 37 C-5.32 35.68 -6.64 34.36 -8 33 C-5.66785852 31.79371992 -3.50357861 30.8345262 -1 30 C-1 29.01 -1 28.02 -1 27 C-2.5778125 26.87625 -2.5778125 26.87625 -4.1875 26.75 C-8.41382766 25.91859128 -10.22081223 25.28449464 -13 22 C-13.41778546 19.19869493 -13.23805357 16.85664285 -13 14 C-12.01 14.495 -12.01 14.495 -11 15 C-10.19032562 12.08517222 -9.78154007 10.53886783 -10.9375 7.6875 C-11.288125 7.130625 -11.63875 6.57375 -12 6 C-10.35 5.34 -8.7 4.68 -7 4 C-6.67 4.66 -6.34 5.32 -6 6 C-5.566875 4.7934375 -5.566875 4.7934375 -5.125 3.5625 C-3.81204892 0.57188921 -3.2474503 0 0 0 Z " fill="#BCA266" transform="translate(126,42)"/>
<path d="M0 0 C0.66 0 1.32 0 2 0 C2.07417023 4.50232334 2.1286105 9.00429091 2.16479492 13.50708008 C2.17987936 15.03871861 2.20034978 16.57031398 2.22631836 18.10180664 C2.26271847 20.30365654 2.27972913 22.50493533 2.29296875 24.70703125 C2.30845261 25.39150833 2.32393646 26.07598541 2.33988953 26.78120422 C2.34091573 29.68164056 2.31821935 31.55331081 0.60668945 33.95581055 C-1 35 -1 35 -3 35 C-2.9071875 36.5778125 -2.9071875 36.5778125 -2.8125 38.1875 C-4 42 -4 42 -6.3046875 43.47265625 C-9.17449033 44.74423555 -12.0591578 45.90334516 -15 47 C-20.16371224 49.15937057 -22.11771141 51.19618569 -25 56 C-25.33 56 -25.66 56 -26 56 C-26 51.71 -26 47.42 -26 43 C-17.375 39.125 -17.375 39.125 -14 38 C-14.33 35.03 -14.66 32.06 -15 29 C-19.20594226 28.27204845 -21.80104745 27.95026186 -26 29 C-26.33 24.38 -26.66 19.76 -27 15 C-26.04480469 14.49210938 -25.08960938 13.98421875 -24.10546875 13.4609375 C-17.93644226 10.17799124 -11.77009435 6.89008074 -5.625 3.5625 C-4.75101563 3.08941406 -3.87703125 2.61632812 -2.9765625 2.12890625 C-1.06358467 1.15135892 -1.06358467 1.15135892 0 0 Z " fill="#0F8772" transform="translate(191,143)"/>
<path d="M0 0 C0.33 0 0.66 0 1 0 C1.125 5.75 1.125 5.75 0 8 C0.66 8.33 1.32 8.66 2 9 C2 11.97 2 14.94 2 18 C3.32 17.67 4.64 17.34 6 17 C6 16.34 6 15.68 6 15 C5.34 15 4.68 15 4 15 C4 12.69 4 10.38 4 8 C4.99 7.67 5.98 7.34 7 7 C8.0209375 8.175625 8.0209375 8.175625 9.0625 9.375 C12.51308916 12.45850521 14.56566662 13.04357515 19 14 C19 14.99 19 15.98 19 17 C16.8614515 19.1385485 15.86724686 19.42655063 13 20 C14.32 21.65 15.64 23.3 17 25 C15.68 25.33 14.36 25.66 13 26 C13.66 26.66 14.32 27.32 15 28 C13.02 27.67 11.04 27.34 9 27 C12.11652614 30.11652614 15.73096612 29.81863582 20 30 C23.82995217 29.95585801 23.82995217 29.95585801 27 29 C28.51294288 27.06402968 28.51294288 27.06402968 29 25 C29.1953125 31.0546875 29.1953125 31.0546875 29 33 C28.34 33.66 27.68 34.32 27 35 C26.01 35 25.02 35 24 35 C24 34.01 24 33.02 24 32 C23.34 32 22.68 32 22 32 C22 33.65 22 35.3 22 37 C21.01 37.33 20.02 37.66 19 38 C18.34 37.01 17.68 36.02 17 35 C15.14267392 34.31775672 15.14267392 34.31775672 13.0625 34 C9.3111131 33.32685394 9.3111131 33.32685394 7.6875 31.62109375 C4.77027543 28.81866737 0.74837185 27.74180582 -2.99414062 26.33789062 C-7.72406324 24.44891205 -7.72406324 24.44891205 -9.30859375 21.87109375 C-9.53675781 21.25363281 -9.76492187 20.63617188 -10 20 C-12.72842061 18.63578969 -14.60953318 19.12192789 -17.625 19.4375 C-18.62789062 19.53933594 -19.63078125 19.64117187 -20.6640625 19.74609375 C-21.43492188 19.82988281 -22.20578125 19.91367188 -23 20 C-23 18.02 -23 16.04 -23 14 C-25.06402968 14.48705712 -25.06402968 14.48705712 -27 16 C-27.81870185 19.56206661 -27.81870185 19.56206661 -28 23 C-28.33 23 -28.66 23 -29 23 C-29 20.69 -29 18.38 -29 16 C-29.66 15.67 -30.32 15.34 -31 15 C-27.68936862 13.16327681 -24.37619334 11.33119238 -21.0625 9.5 C-20.11697266 8.97535156 -19.17144531 8.45070313 -18.19726562 7.91015625 C-17.29814453 7.41386719 -16.39902344 6.91757812 -15.47265625 6.40625 C-14.64000244 5.94541016 -13.80734863 5.48457031 -12.94946289 5.00976562 C-11 4 -11 4 -10 4 C-9.97287934 5.43739513 -9.95354933 6.87493863 -9.9375 8.3125 C-9.92589844 9.11300781 -9.91429688 9.91351563 -9.90234375 10.73828125 C-10 13 -10 13 -11 16 C-9.68 16 -8.36 16 -7 16 C-7 12.04 -7 8.08 -7 4 C-6.01 3.67 -5.02 3.34 -4 3 C-3.67 3.99 -3.34 4.98 -3 6 C-2.01 4.02 -1.02 2.04 0 0 Z " fill="#BE9F56" transform="translate(106,55)"/>
<path d="M0 0 C5.14373527 0.64296691 8.36957777 3.46206621 12.5 6.4375 C13.428125 6.97375 14.35625 7.51 15.3125 8.0625 C17.5 9.4375 17.5 9.4375 19.29296875 11.3984375 C21.80469607 13.71900681 23.7524049 14.43823997 27 15.4375 C31.1630832 16.71844868 33.86870858 17.87173126 36.5 21.4375 C36.890625 24.453125 36.890625 24.453125 36.75 27.6875 C36.71390625 28.76515625 36.6778125 29.8428125 36.640625 30.953125 C36.59421875 31.77296875 36.5478125 32.5928125 36.5 33.4375 C33.22758909 35.07370545 29.65533737 34.70549747 26.0625 34.75 C25.28583984 34.77900391 24.50917969 34.80800781 23.70898438 34.83789062 C18.06134889 34.90112858 18.06134889 34.90112858 15.48046875 32.76953125 C14.29453123 29.94879539 14.1676708 27.86691317 14.25 24.8125 C14.26546875 23.85085937 14.2809375 22.88921875 14.296875 21.8984375 C14.5 19.4375 14.5 19.4375 15.5 17.4375 C14.200625 17.23125 12.90125 17.025 11.5625 16.8125 C5.01815997 15.37315939 -0.75932705 12.04850943 -4.5 6.4375 C-3.81306991 0.66728723 -3.81306991 0.66728723 0 0 Z " fill="#21806F" transform="translate(89.5,162.5625)"/>
<path d="M0 0 C2 2 2 2 2 5 C2.66 5 3.32 5 4 5 C4.12375 4.38125 4.2475 3.7625 4.375 3.125 C5 1 5 1 7 -1 C10.125 -1.125 10.125 -1.125 13 -1 C13 -0.01 13 0.98 13 2 C14.32 2.66 15.64 3.32 17 4 C17 4.33 17 4.66 17 5 C16.05125 5.268125 15.1025 5.53625 14.125 5.8125 C10.74732727 6.74986588 10.74732727 6.74986588 9 10 C9.350625 10.556875 9.70125 11.11375 10.0625 11.6875 C11.21845993 14.53886783 10.80967438 16.08517222 10 19 C9.67 18.34 9.34 17.68 9 17 C8.34 17 7.68 17 7 17 C6.54625 15.865625 6.0925 14.73125 5.625 13.5625 C4.42904194 9.95278308 4.42904194 9.95278308 2 9 C2.33 12.63 2.66 16.26 3 20 C1.68 19.67 0.36 19.34 -1 19 C-3.18703385 19.37907282 -3.18703385 19.37907282 -5 20 C-4.67 20.99 -4.34 21.98 -4 23 C-4.99 22.67 -5.98 22.34 -7 22 C-7.6875 19.9375 -7.6875 19.9375 -8 18 C-8.66 18 -9.32 18 -10 18 C-10.99 22.29 -11.98 26.58 -13 31 C-13.66 31 -14.32 31 -15 31 C-15.33 28.36 -15.66 25.72 -16 23 C-16.99 23.66 -17.98 24.32 -19 25 C-19 23.35 -19 21.7 -19 20 C-19.66 20 -20.32 20 -21 20 C-19.79618552 17.50638429 -18.54571278 15.31856917 -17 13 C-17.99 12.34 -18.98 11.68 -20 11 C-19 10 -19 10 -15.4375 9.9375 C-14.303125 9.958125 -13.16875 9.97875 -12 10 C-11.34 11.32 -10.68 12.64 -10 14 C-9.34 14 -8.68 14 -8 14 C-7.67 12.68 -7.34 11.36 -7 10 C-7.99 10.33 -8.98 10.66 -10 11 C-9.45773019 7.20411134 -7.79872437 5.52788007 -5 3 C-6.32 2.67 -7.64 2.34 -9 2 C-9 1.34 -9 0.68 -9 0 C-5.88135455 -1.55932272 -3.33704665 -0.65549131 0 0 Z " fill="#589148" transform="translate(105,27)"/>
<path d="M0 0 C0.07417023 4.50232334 0.1286105 9.00429091 0.16479492 13.50708008 C0.17987936 15.03871861 0.20034978 16.57031398 0.22631836 18.10180664 C0.26271847 20.30365654 0.27972913 22.50493533 0.29296875 24.70703125 C0.30845261 25.39150833 0.32393646 26.07598541 0.33988953 26.78120422 C0.34091573 29.68164056 0.31821935 31.55331081 -1.39331055 33.95581055 C-3 35 -3 35 -5 35 C-5.33 37.31 -5.66 39.62 -6 42 C-9 43 -9 43 -12 42 C-12.24843695 37.1440131 -12.42917659 32.29176501 -12.54931641 27.4309082 C-12.59941163 25.78051305 -12.6675171 24.13055755 -12.75439453 22.48168945 C-13.45799657 8.77800513 -13.45799657 8.77800513 -9.79980469 4.31689453 C-3.75462963 0 -3.75462963 0 0 0 Z " fill="#0D9F85" transform="translate(193,143)"/>
<path d="M0 0 C0.763125 0.474375 1.52625 0.94875 2.3125 1.4375 C4.96410548 3.10106097 4.96410548 3.10106097 8 4 C9.125 9.75 9.125 9.75 8 12 C9.65 11.01 11.3 10.02 13 9 C13.33 9.99 13.66 10.98 14 12 C12.5 14.6875 12.5 14.6875 10 17 C6.25 17.3125 6.25 17.3125 3 17 C3 17.66 3 18.32 3 19 C4.65 19.66 6.3 20.32 8 21 C8 21.99 8 22.98 8 24 C4.80813973 26.88297057 1.46651781 29.03188082 -2.875 28.9375 C-5 28 -5 28 -7 26 C-6.34 25.34 -5.68 24.68 -5 24 C-6.3921875 24.3403125 -6.3921875 24.3403125 -7.8125 24.6875 C-9.3903125 24.8421875 -9.3903125 24.8421875 -11 25 C-11.99 24.01 -12.98 23.02 -14 22 C-10.535 19.525 -10.535 19.525 -7 17 C-8.32 16.67 -9.64 16.34 -11 16 C-10.67 15.01 -10.34 14.02 -10 13 C-10.99 12.01 -11.98 11.02 -13 10 C-12.34 9.01 -11.68 8.02 -11 7 C-10.34 7 -9.68 7 -9 7 C-9 8.32 -9 9.64 -9 11 C-7.02 10.67 -5.04 10.34 -3 10 C-4.83827868 6.84866512 -6.75972706 3.88035092 -9 1 C-3.25 1.75 -3.25 1.75 -1 4 C-0.67 2.68 -0.34 1.36 0 0 Z " fill="#C8AE71" transform="translate(150,64)"/>
<path d="M0 0 C0 0.66 0 1.32 0 2 C-1.98 2.66 -3.96 3.32 -6 4 C-5.236875 4.268125 -4.47375 4.53625 -3.6875 4.8125 C-1.11011382 5.95134505 0.26954864 6.81416671 2 9 C2 9.66 2 10.32 2 11 C1.01 11.495 1.01 11.495 0 12 C0 13.65 0 15.3 0 17 C-1.32 16.01 -2.64 15.02 -4 14 C-3.979375 14.94875 -3.95875 15.8975 -3.9375 16.875 C-4 20 -4 20 -5 22 C-5.99 22 -6.98 22 -8 22 C-8 26.29 -8 30.58 -8 35 C-10.475 35.495 -10.475 35.495 -13 36 C-12.83628906 35.46890625 -12.67257813 34.9378125 -12.50390625 34.390625 C-11.88643623 31.46123236 -11.90498075 28.74177064 -11.9375 25.75 C-11.95103516 24.13351563 -11.95103516 24.13351563 -11.96484375 22.484375 C-11.97644531 21.66453125 -11.98804688 20.8446875 -12 20 C-13.32 19.34 -14.64 18.68 -16 18 C-16.33 19.32 -16.66 20.64 -17 22 C-17.33 19.69 -17.66 17.38 -18 15 C-19.98 15.99 -19.98 15.99 -22 17 C-22 15.02 -22 13.04 -22 11 C-22.66 11 -23.32 11 -24 11 C-22.54744301 7.17053157 -20.57104439 5.87949705 -17 4 C-19.475 3.01 -19.475 3.01 -22 2 C-21.67 1.34 -21.34 0.68 -21 0 C-17.06225823 -0.36630156 -15.43460229 -0.30233203 -12.125 2 C-11.073125 2.99 -11.073125 2.99 -10 4 C-9.71125 3.360625 -9.4225 2.72125 -9.125 2.0625 C-6.85630752 -2.09676954 -4.13391544 -0.80880954 0 0 Z " fill="#5A9349" transform="translate(222,70)"/>
<path d="M0 0 C0.99 0.33 1.98 0.66 3 1 C4.1875 4.5625 4.1875 4.5625 5 8 C5.99 8 6.98 8 8 8 C8.33 7.34 8.66 6.68 9 6 C9.99 6.33 10.98 6.66 12 7 C12 7.99 12 8.98 12 10 C10.02 10.99 10.02 10.99 8 12 C8.37125 12.9075 8.7425 13.815 9.125 14.75 C10 18 10 18 9.125 20.375 C8.75375 20.91125 8.3825 21.4475 8 22 C7.67 21.67 7.34 21.34 7 21 C6.34 22.98 5.68 24.96 5 27 C4.34 27 3.68 27 3 27 C3 29.31 3 31.62 3 34 C3.66 34 4.32 34 5 34 C5 34.66 5 35.32 5 36 C3.35 36.66 1.7 37.32 0 38 C0.33 34.7 0.66 31.4 1 28 C0.01 27.67 -0.98 27.34 -2 27 C-1.67 24.69 -1.34 22.38 -1 20 C-1.66 22.31 -2.32 24.62 -3 27 C-3.45375 26.34 -3.9075 25.68 -4.375 25 C-4.91125 24.34 -5.4475 23.68 -6 23 C-6.66 23 -7.32 23 -8 23 C-8 26.96 -8 30.92 -8 35 C-9.32 35 -10.64 35 -12 35 C-12 26.42 -12 17.84 -12 9 C-11.34 9 -10.68 9 -10 9 C-9.71125 9.639375 -9.4225 10.27875 -9.125 10.9375 C-8.17176549 13.15206079 -8.17176549 13.15206079 -6 14 C-6 13.34 -6 12.68 -6 12 C-6.66 11.67 -7.32 11.34 -8 11 C-6.865625 10.690625 -5.73125 10.38125 -4.5625 10.0625 C-1.21224901 9.37075469 -1.21224901 9.37075469 0 8 C0.07148199 6.64756083 0.08399454 5.29165633 0.0625 3.9375 C0.041875 2.638125 0.02125 1.33875 0 0 Z " fill="#5D9349" transform="translate(107,36)"/>
<path d="M0 0 C2.75 -0.25 2.75 -0.25 6 0 C8.375 2 8.375 2 10 4 C10.350625 3.34 10.70125 2.68 11.0625 2 C13 0 13 0 16.6875 -0.25 C17.780625 -0.1675 18.87375 -0.085 20 0 C20 0.66 20 1.32 20 2 C18.35 2.66 16.7 3.32 15 4 C15.78375 4.226875 16.5675 4.45375 17.375 4.6875 C20 6 20 6 21.3125 8.625 C21.6528125 9.800625 21.6528125 9.800625 22 11 C21.34 11 20.68 11 20 11 C20 12.65 20 14.3 20 16 C18.68 15.01 17.36 14.02 16 13 C16 15.31 16 17.62 16 20 C15.34 20.33 14.68 20.66 14 21 C13.67 19.35 13.34 17.7 13 16 C12.67 21.61 12.34 27.22 12 33 C12.99 33 13.98 33 15 33 C15 33.66 15 34.32 15 35 C12.69 34.67 10.38 34.34 8 34 C8.33 33.01 8.66 32.02 9 31 C9.0806622 29.51876453 9.10761193 28.03417796 9.09765625 26.55078125 C9.09443359 25.70322266 9.09121094 24.85566406 9.08789062 23.98242188 C9.07951172 23.10134766 9.07113281 22.22027344 9.0625 21.3125 C9.05798828 20.41982422 9.05347656 19.52714844 9.04882812 18.60742188 C9.03704983 16.40488013 9.02060164 14.20247401 9 12 C8.34 12 7.68 12 7 12 C6.34 14.97 5.68 17.94 5 21 C2.64046906 18.64046906 2.50858587 17.22104383 2 14 C1.01 14.66 0.02 15.32 -1 16 C-0.67 14.02 -0.34 12.04 0 10 C-0.66 10 -1.32 10 -2 10 C-0.95125002 7.37812506 -0.35068687 6.20628639 2.125 4.75 C2.74375 4.5025 3.3625 4.255 4 4 C1.525 3.01 1.525 3.01 -1 2 C-0.67 1.34 -0.34 0.68 0 0 Z " fill="#5E9545" transform="translate(176,81)"/>
<path d="M0 0 C5.54459171 0.44497997 9.28370868 1.96887753 13.9375 5.0625 C14.82018555 5.62807617 14.82018555 5.62807617 15.72070312 6.20507812 C17.15421463 7.12578877 18.5781572 8.06136994 20 9 C18.38731308 6.28775382 16.75098126 3.62647188 15 1 C20.875 2.875 20.875 2.875 22 4 C22.33 3.01 22.66 2.02 23 1 C26 2 26 2 28 4 C28.66 4 29.32 4 30 4 C30 5.98 30 7.96 30 10 C31.3921875 9.2265625 31.3921875 9.2265625 32.8125 8.4375 C36 7 36 7 39 8 C38.34 8 37.68 8 37 8 C36.67 8.99 36.34 9.98 36 11 C33.68020619 12.03101947 31.34570085 13.02936517 29 14 C27.32193275 15.43834336 26.10735819 16.8595823 24.76953125 18.609375 C23 20 23 20 20.37109375 20.109375 C19.40300781 19.99078125 18.43492187 19.8721875 17.4375 19.75 C16.46683594 19.64171875 15.49617187 19.5334375 14.49609375 19.421875 C12 19 12 19 10 18 C10 17.34 10 16.68 10 16 C11.32 15.67 12.64 15.34 14 15 C12.35 13.35 10.7 11.7 9 10 C11 9 11 9 12 9 C10.56351736 7.87370125 9.12577415 6.7490101 7.6875 5.625 C6.88699219 4.99851562 6.08648437 4.37203125 5.26171875 3.7265625 C3.55336788 2.42243282 1.78827274 1.19218183 0 0 Z " fill="#C1A35C" transform="translate(184,115)"/>
<path d="M0 0 C3.84582722 1.47165904 4.98615647 2.68076503 6.72265625 6.26953125 C7.69203125 6.57890625 8.66140625 6.88828125 9.66015625 7.20703125 C13.46694805 8.52775494 13.80662072 9.85398966 15.72265625 13.26953125 C16.58890625 13.76453125 17.45515625 14.25953125 18.34765625 14.76953125 C20.72265625 16.26953125 20.72265625 16.26953125 21.59765625 18.89453125 C21.63890625 19.67828125 21.68015625 20.46203125 21.72265625 21.26953125 C20.72265625 22.26953125 20.72265625 22.26953125 16.97265625 22.51953125 C13.09993227 22.44305017 10.64165248 22.01161861 7.72265625 19.26953125 C7.64015625 18.15578125 7.55765625 17.04203125 7.47265625 15.89453125 C7.12906457 12.26078577 7.12906457 12.26078577 4.84765625 10.80859375 C2.50748471 9.53843486 0.13607993 8.39302158 -2.27734375 7.26953125 C-3.10234375 6.73328125 -3.92734375 6.19703125 -4.77734375 5.64453125 C-8.4251036 3.63826333 -12.30824954 2.48879548 -16.27734375 1.26953125 C-16.27734375 -0.05046875 -16.27734375 -1.37046875 -16.27734375 -2.73046875 C-11.75553922 -4.99137102 -4.62173178 -1.48244227 0 0 Z " fill="#2CA993" transform="translate(98.27734375,101.73046875)"/>
<path d="M0 0 C1.48360257 6.61638887 2.09205752 13.24611582 -0.4375 19.625 C-2 22 -2 22 -3 23 C-1.824375 24.11375 -1.824375 24.11375 -0.625 25.25 C1.56504531 27.54433318 2.82731386 29.12158858 4 32 C1.525 31.01 1.525 31.01 -1 30 C-1 29.01 -1 28.02 -1 27 C-2.5778125 26.87625 -2.5778125 26.87625 -4.1875 26.75 C-8.41382766 25.91859128 -10.22081223 25.28449464 -13 22 C-13.41778546 19.19869493 -13.23805357 16.85664285 -13 14 C-12.01 14.495 -12.01 14.495 -11 15 C-10.19032562 12.08517222 -9.78154007 10.53886783 -10.9375 7.6875 C-11.288125 7.130625 -11.63875 6.57375 -12 6 C-10.35 5.34 -8.7 4.68 -7 4 C-6.67 4.66 -6.34 5.32 -6 6 C-5.566875 4.7934375 -5.566875 4.7934375 -5.125 3.5625 C-3.81204892 0.57188921 -3.2474503 0 0 0 Z " fill="#D1B369" transform="translate(126,42)"/>
<path d="M0 0 C0.14522934 3.91627663 0.23404757 7.83186153 0.3125 11.75 C0.3753418 13.41675781 0.3753418 13.41675781 0.43945312 15.1171875 C0.56429754 23.40685658 0.56429754 23.40685658 -2.4453125 26.5703125 C-3.28835937 27.04210937 -4.13140625 27.51390625 -5 28 C-6.21284876 31.05429073 -6.21284876 31.05429073 -7 34 C-7.66 34.66 -8.32 35.32 -9 36 C-9 25.44 -9 14.88 -9 4 C-2 0 -2 0 0 0 Z " fill="#B4881E" transform="translate(203,137)"/>
<path d="M0 0 C2 2 2 2 2.1953125 3.9453125 C2.13020833 5.96354167 2.06510417 7.98177083 2 10 C-1.70599341 12.37183578 -4.66627113 12.41939312 -9 12 C-17.7956044 9.2043956 -17.7956044 9.2043956 -21 6 C-20.44444444 1.44444444 -20.44444444 1.44444444 -19 0 C-12.77868113 -1.1109498 -6.18312834 -1.53245638 0 0 Z " fill="#228170" transform="translate(129,154)"/>
<path d="M0 0 C14.31843963 6.12553567 14.31843963 6.12553567 16.875 11.4375 C17.24625 12.613125 17.6175 13.78875 18 15 C16.35 15.33 14.7 15.66 13 16 C14.65 18.31 16.3 20.62 18 23 C17.34 23.33 16.68 23.66 16 24 C13.71879579 22.82528366 11.60271048 21.61112263 9.4375 20.25 C8.83486328 19.8890625 8.23222656 19.528125 7.61132812 19.15625 C3.12577351 16.37732054 3.12577351 16.37732054 2 13 C1.34 13 0.68 13 0 13 C0 8.71 0 4.42 0 0 Z " fill="#D4B670" transform="translate(214,92)"/>
<path d="M0 0 C-0.13921875 1.19496094 -0.13921875 1.19496094 -0.28125 2.4140625 C-0.9175006 8.69755057 -0.9175006 8.69755057 1.78125 14.0625 C3.96091342 15.64900535 3.96091342 15.64900535 6.25 16.9140625 C6.8275 17.27242187 7.405 17.63078125 8 18 C8 18.66 8 19.32 8 20 C8.78375 20.12375 9.5675 20.2475 10.375 20.375 C13 21 13 21 15 23 C13.24788218 22.74322411 11.49832064 22.46897047 9.75 22.1875 C8.77546875 22.03667969 7.8009375 21.88585937 6.796875 21.73046875 C3.83144846 20.95597886 2.17943026 20.14310642 0 18 C0 17.01 0 16.02 0 15 C-6.435 15.495 -6.435 15.495 -13 16 C-13 14.02 -13 12.04 -13 10 C-15.06402968 10.48705712 -15.06402968 10.48705712 -17 12 C-17.81870185 15.56206661 -17.81870185 15.56206661 -18 19 C-18.33 19 -18.66 19 -19 19 C-19 16.69 -19 14.38 -19 12 C-19.66 11.67 -20.32 11.34 -21 11 C-17.68936862 9.16327681 -14.37619334 7.33119238 -11.0625 5.5 C-10.11697266 4.97535156 -9.17144531 4.45070313 -8.19726562 3.91015625 C-7.29814453 3.41386719 -6.39902344 2.91757812 -5.47265625 2.40625 C-4.64000244 1.94541016 -3.80734863 1.48457031 -2.94946289 1.00976562 C-1 0 -1 0 0 0 Z " fill="#C9A449" transform="translate(96,59)"/>
<path d="M0 0 C4.70296062 0.49504849 8.56006476 1.95174475 12.87109375 3.76171875 C15.33242456 4.73580348 17.77728535 5.61778527 20.28515625 6.45703125 C21.04078857 6.71202393 21.7964209 6.9670166 22.57495117 7.22973633 C24.08373498 7.73501315 25.5955748 8.23127327 27.1105957 8.7175293 C31.35254306 10.15029791 34.04618419 11.48220981 37 15 C37.763125 15.721875 38.52625 16.44375 39.3125 17.1875 C41.748133 21.24688833 40.90250066 24.49730647 40 29 C38.68 29 37.36 29 36 29 C35.84144531 28.33613281 35.68289062 27.67226562 35.51953125 26.98828125 C35.16955078 25.66376953 35.16955078 25.66376953 34.8125 24.3125 C34.59207031 23.44238281 34.37164062 22.57226562 34.14453125 21.67578125 C32.30470665 17.37448483 29.94377143 14.86992426 25.62866211 12.9387207 C22.79123637 11.89370203 19.93945032 10.93061115 17.0625 10 C10.39466866 7.83460527 5.01668277 6.02517123 0 1 C0 0.67 0 0.34 0 0 Z " fill="#268B78" transform="translate(55,111)"/>
<path d="M0 0 C0.99 0.33 1.98 0.66 3 1 C3.66 0.67 4.32 0.34 5 0 C4.25 4.75 4.25 4.75 2 7 C-1.125 7.125 -1.125 7.125 -4 7 C-3.7525 8.051875 -3.505 9.10375 -3.25 10.1875 C-3 14 -3 14 -4.8125 16.9375 C-7 19 -7 19 -9 19 C-8.67 17.02 -8.34 15.04 -8 13 C-8.99 13.66 -9.98 14.32 -11 15 C-14.1875 15.125 -14.1875 15.125 -17 15 C-17.33 14.01 -17.66 13.02 -18 12 C-18.62648437 12.3609375 -19.25296875 12.721875 -19.8984375 13.09375 C-20.71570313 13.5578125 -21.53296875 14.021875 -22.375 14.5 C-23.18710938 14.9640625 -23.99921875 15.428125 -24.8359375 15.90625 C-27 17 -27 17 -29 17 C-28.505 15.515 -28.505 15.515 -28 14 C-26.28264039 13.27342478 -24.56193299 12.55304724 -22.8203125 11.88671875 C-20.70589615 10.99249764 -20.70589615 10.99249764 -18.625 8.4375 C-15.47563122 5.51308613 -13.40062022 5.23935544 -9.28125 4.5390625 C-6.87382934 3.9701857 -5.21580167 3.11482138 -3.125 1.8125 C-2.09375 1.214375 -1.0625 0.61625 0 0 Z " fill="#B39244" transform="translate(241,114)"/>
<path d="M0 0 C5.23722089 0.81267221 8.38138944 2.22070966 12 6.125 C13.625 8.5625 13.625 8.5625 13.625 10.5625 C11.41996964 11.09714435 9.21077828 11.61464435 7 12.125 C5.77023438 12.41503906 4.54046875 12.70507812 3.2734375 13.00390625 C-0.31358643 13.55309728 -2.86597129 13.37767436 -6.375 12.5625 C-7.49266762 8.65066333 -7.55342509 6.96395645 -5.875 3.1875 C-3.375 0.5625 -3.375 0.5625 0 0 Z " fill="#258675" transform="translate(105.375,137.4375)"/>
<path d="M0 0 C3.4375 -0.4375 3.4375 -0.4375 7 0 C8.9375 2 8.9375 2 10 4 C9.67 4.66 9.34 5.32 9 6 C8.67 6 8.34 6 8 6 C8 7.65 8 9.3 8 11 C6.68 10.01 5.36 9.02 4 8 C4 10.31 4 12.62 4 15 C3.01 15.495 3.01 15.495 2 16 C1.67 14.35 1.34 12.7 1 11 C0.67 16.61 0.34 22.22 0 28 C0.99 28 1.98 28 3 28 C3 28.66 3 29.32 3 30 C0.69 29.67 -1.62 29.34 -4 29 C-3.67 28.01 -3.34 27.02 -3 26 C-2.9193378 24.51876453 -2.89238807 23.03417796 -2.90234375 21.55078125 C-2.90556641 20.70322266 -2.90878906 19.85566406 -2.91210938 18.98242188 C-2.92048828 18.10134766 -2.92886719 17.22027344 -2.9375 16.3125 C-2.94201172 15.41982422 -2.94652344 14.52714844 -2.95117188 13.60742188 C-2.96295017 11.40488013 -2.97939836 9.20247401 -3 7 C-3.66 6.67 -4.32 6.34 -5 6 C-4.54625 5.566875 -4.0925 5.13375 -3.625 4.6875 C-1.79975666 2.89201658 -1.79975666 2.89201658 0 0 Z " fill="#56903F" transform="translate(188,86)"/>
<path d="M0 0 C-0.1875 1.8125 -0.1875 1.8125 -1 4 C-3.125 5.5 -3.125 5.5 -6 7 C-7.18823799 7.70709464 -8.37570978 8.4154781 -9.5625 9.125 C-13 11 -13 11 -15.3125 11.5 C-17.23335597 11.86333007 -17.23335597 11.86333007 -18.25 14.0625 C-18.4975 14.701875 -18.745 15.34125 -19 16 C-20.32 16 -21.64 16 -23 16 C-23.4401757 11.47597193 -22.26180946 9.31983956 -19.625 5.6875 C-18.68527344 4.36298828 -18.68527344 4.36298828 -17.7265625 3.01171875 C-17.15679687 2.34785156 -16.58703125 1.68398437 -16 1 C-15.34 1 -14.68 1 -14 1 C-14 1.66 -14 2.32 -14 3 C-13.484375 2.690625 -12.96875 2.38125 -12.4375 2.0625 C-8.43793125 0.31909824 -4.3319892 0 0 0 Z " fill="#309483" transform="translate(170,177)"/>
<path d="M0 0 C0.33 0.99 0.66 1.98 1 3 C3.97 3.495 3.97 3.495 7 4 C7 4.99 7 5.98 7 7 C3.80813973 9.88297057 0.46651781 12.03188082 -3.875 11.9375 C-6 11 -6 11 -8 9 C-7.34 8.34 -6.68 7.68 -6 7 C-7.3921875 7.3403125 -7.3921875 7.3403125 -8.8125 7.6875 C-9.864375 7.790625 -10.91625 7.89375 -12 8 C-13.69921875 6.51953125 -13.69921875 6.51953125 -15 5 C-13.4493684 3.96122737 -11.88390319 2.94457445 -10.3125 1.9375 C-9.44238281 1.36902344 -8.57226562 0.80054687 -7.67578125 0.21484375 C-4.57177563 -1.19442012 -3.1959424 -1.00772958 0 0 Z " fill="#DAD8CA" transform="translate(151,81)"/>
<path d="M0 0 C0.928125 0.20625 1.85625 0.4125 2.8125 0.625 C2.8125 1.285 2.8125 1.945 2.8125 2.625 C0.8325 3.285 -1.1475 3.945 -3.1875 4.625 C-2.424375 4.893125 -1.66125 5.16125 -0.875 5.4375 C1.70238618 6.57634505 3.08204864 7.43916671 4.8125 9.625 C4.8125 10.285 4.8125 10.945 4.8125 11.625 C3.8225 12.12 3.8225 12.12 2.8125 12.625 C2.8125 14.275 2.8125 15.925 2.8125 17.625 C1.4925 16.635 0.1725 15.645 -1.1875 14.625 C-1.166875 15.57375 -1.14625 16.5225 -1.125 17.5 C-1.1875 20.625 -1.1875 20.625 -2.1875 22.625 C-2.8475 22.625 -3.5075 22.625 -4.1875 22.625 C-4.30867187 22.04492188 -4.42984375 21.46484375 -4.5546875 20.8671875 C-5.32906089 17.25741617 -6.08579531 13.88434696 -7.4375 10.4375 C-8.40528207 6.80831723 -7.78783613 4.97808522 -6.1875 1.625 C-3.1875 -0.375 -3.1875 -0.375 0 0 Z " fill="#538E43" transform="translate(219.1875,69.375)"/>
<path d="M0 0 C1.35738281 0.57427734 1.35738281 0.57427734 2.7421875 1.16015625 C4.10730469 1.73056641 4.10730469 1.73056641 5.5 2.3125 C6.19867188 2.61285156 6.89734375 2.91320312 7.6171875 3.22265625 C5.8671875 9.97265625 5.8671875 9.97265625 3.6171875 12.22265625 C1.1796875 12.16015625 1.1796875 12.16015625 -1.3828125 11.22265625 C-3.0078125 8.72265625 -3.0078125 8.72265625 -4.3828125 6.22265625 C-5.3728125 5.89265625 -6.3628125 5.56265625 -7.3828125 5.22265625 C-7.0528125 4.23265625 -6.7228125 3.24265625 -6.3828125 2.22265625 C-5.7228125 2.22265625 -5.0628125 2.22265625 -4.3828125 2.22265625 C-4.3828125 1.56265625 -4.3828125 0.90265625 -4.3828125 0.22265625 C-2.3828125 -0.77734375 -2.3828125 -0.77734375 0 0 Z " fill="#2CA993" transform="translate(69.3828125,87.77734375)"/>
<path d="M0 0 C0.66 0 1.32 0 2 0 C5.5885817 5.55353774 5.19658669 10.05872092 4.6875 16.375 C4.62626953 17.30183594 4.56503906 18.22867188 4.50195312 19.18359375 C4.34959726 21.45721208 4.18190418 23.72858703 4 26 C2.35 26.33 0.7 26.66 -1 27 C-0.84015625 26.46632813 -0.6803125 25.93265625 -0.515625 25.3828125 C0.10605998 22.50987432 0.20667826 19.81365791 0.25 16.875 C0.27578125 15.82054688 0.3015625 14.76609375 0.328125 13.6796875 C0.21984375 12.79539062 0.1115625 11.91109375 0 11 C-0.99 10.34 -1.98 9.68 -3 9 C-1.125 2.25 -1.125 2.25 0 0 Z " fill="#938C5E" transform="translate(210,79)"/>
<path d="M0 0 C0.33 0 0.66 0 1 0 C1.125 5.75 1.125 5.75 0 8 C0.66 8.33 1.32 8.66 2 9 C2.19622241 13.21878192 1.80230168 16.17010894 0 20 C-2.84148564 18.57925718 -4.65874886 17.5687519 -6.3125 14.8125 C-7.22015862 11.09935111 -7.12947964 7.81964945 -7 4 C-6.01 3.67 -5.02 3.34 -4 3 C-3.67 3.99 -3.34 4.98 -3 6 C-2.01 4.02 -1.02 2.04 0 0 Z " fill="#CCAB58" transform="translate(106,55)"/>
<path d="M0 0 C1.0828125 0.2475 1.0828125 0.2475 2.1875 0.5 C4.86427545 0.97587119 7.28949487 1.077443 10 1 C10.3403125 2.2065625 10.3403125 2.2065625 10.6875 3.4375 C11.120625 4.283125 11.55375 5.12875 12 6 C13.2375 6.2475 13.2375 6.2475 14.5 6.5 C15.7375 6.7475 15.7375 6.7475 17 7 C18.3125 9.5625 18.3125 9.5625 19 12 C18 13 18 13 15.375 13.375 C11.0135257 12.89039174 8.03487342 11.17700248 5 8 C4.62848536 6.67679716 4.2930626 5.34275955 4 4 C2.02098426 1.77022004 2.02098426 1.77022004 0 0 Z " fill="#29A790" transform="translate(81,109)"/>
<path d="M0 0 C3.51970694 0.23998002 5.83961722 0.91127761 8.9375 2.625 C11 5 11 5 10.8125 8.75 C10.544375 9.8225 10.27625 10.895 10 12 C8.35 12.33 6.7 12.66 5 13 C-0.85491671 6.95340447 -0.85491671 6.95340447 -1.4375 3.125 C-1 1 -1 1 0 0 Z " fill="#228271" transform="translate(52,137)"/>
<path d="M0 0 C0.51949219 0.42152344 1.03898437 0.84304687 1.57421875 1.27734375 C6.70146308 5.43428979 6.70146308 5.43428979 13 7 C13 7.99 13 8.98 13 10 C12.34 10.66 11.68 11.32 11 12 C8 12 8 12 5 11 C4.67 11.66 4.34 12.32 4 13 C1.525 12.01 1.525 12.01 -1 11 C-0.67 10.01 -0.34 9.02 0 8 C-0.66 8 -1.32 8 -2 8 C-2 5.69 -2 3.38 -2 1 C-1.34 0.67 -0.68 0.34 0 0 Z " fill="#C7A75D" transform="translate(112,62)"/>
<path d="M0 0 C2.39774745 -0.13572155 4.78775245 -0.23436868 7.1875 -0.3125 C8.19780273 -0.3753418 8.19780273 -0.3753418 9.22851562 -0.43945312 C13.22181767 -0.53685074 14.83065311 -0.13406629 18 2.375 C20 5 20 5 19.8125 7.3125 C19.544375 7.869375 19.27625 8.42625 19 9 C17.68 9 16.36 9 15 9 C15 8.01 15 7.02 15 6 C7.575 5.01 7.575 5.01 0 4 C0 2.68 0 1.36 0 0 Z " fill="#2BA892" transform="translate(139,140)"/>
<path d="M0 0 C3.93553213 0.92600756 6.38659476 1.50628359 9.5625 4.0625 C12.40842002 6.32464155 14.42705745 6.66763325 18 7 C15.375 12.75 15.375 12.75 12 15 C11.01 14.67 10.02 14.34 9 14 C9.99 13.01 10.98 12.02 12 11 C11.67 10.67 11.34 10.34 11 10 C8.66055264 10.28730055 6.3260857 10.61936779 4 11 C3.67 10.01 3.34 9.02 3 8 C1.50014391 6.33289654 1.50014391 6.33289654 0 5 C1.32 4.67 2.64 4.34 4 4 C2.68 2.68 1.36 1.36 0 0 Z " fill="#BD983C" transform="translate(105,82)"/>
<path d="M0 0 C3 1 3 1 4.1796875 3.3515625 C5.31326863 8.39329954 5.21135927 13.22665873 5.125 18.375 C5.11597656 19.39722656 5.10695312 20.41945313 5.09765625 21.47265625 C5.0742043 23.98201522 5.04138355 26.49088336 5 29 C3.35 28.67 1.7 28.34 0 28 C0.16371094 27.18273437 0.32742187 26.36546875 0.49609375 25.5234375 C1.06974606 21.51231824 1.11001604 17.66751879 1.0625 13.625 C1.05798828 12.88894531 1.05347656 12.15289062 1.04882812 11.39453125 C1.03715142 9.59631842 1.01922011 7.79814803 1 6 C0.01 6.33 -0.98 6.66 -2 7 C-1.125 2.25 -1.125 2.25 0 0 Z " fill="#9E833C" transform="translate(125,36)"/>
<path d="M0 0 C0.33 0 0.66 0 1 0 C1.99 3.3 2.98 6.6 4 10 C4.66 10 5.32 10 6 10 C6.66 7.69 7.32 5.38 8 3 C8.33 3 8.66 3 9 3 C9.48430493 10.26457399 9.48430493 10.26457399 7.3125 13.5625 C5 15 5 15 2.4375 14.875 C0 14 0 14 -3 12 C-2.14285714 3.42857143 -2.14285714 3.42857143 0 0 Z " fill="#238573" transform="translate(88,130)"/>
<path d="M0 0 C1.09102261 1.15921152 2.18044552 2.31997055 3.26171875 3.48828125 C6.98687218 6.72790907 11.62353883 8.76961436 16 11 C10.19354839 16 10.19354839 16 7 16 C4.75 14.1875 4.75 14.1875 3 12 C3 11.34 3 10.68 3 10 C5.31 10.66 7.62 11.32 10 12 C9.22914063 11.51789063 8.45828125 11.03578125 7.6640625 10.5390625 C6.66117188 9.90742187 5.65828125 9.27578125 4.625 8.625 C3.12839844 7.68527344 3.12839844 7.68527344 1.6015625 6.7265625 C-1 5 -1 5 -3 3 C-4.31747324 2.30251417 -5.64914193 1.63040043 -7 1 C-4.50935112 0.31292445 -2.62113708 0 0 0 Z " fill="#C4AC70" transform="translate(216,105)"/>
<path d="M0 0 C0.66 0 1.32 0 2 0 C3.67782517 2.68452027 4.2135158 5.02917241 4.5625 8.125 C4.75115044 11.78900424 4.75115044 11.78900424 6 14 C5.34 14 4.68 14 4 14 C4 17.96 4 21.92 4 26 C2.68 26 1.36 26 0 26 C0 17.42 0 8.84 0 0 Z " fill="#A38D4A" transform="translate(95,45)"/>
<path d="M0 0 C0.33 0.99 0.66 1.98 1 3 C-0.65 3.33 -2.3 3.66 -4 4 C-4 4.66 -4 5.32 -4 6 C-6.46393719 7.55136786 -7.68089146 8.03039129 -10.625 7.75 C-13 7 -13 7 -15 5 C-13.4493684 3.96122737 -11.88390319 2.94457445 -10.3125 1.9375 C-9.44238281 1.36902344 -8.57226562 0.80054687 -7.67578125 0.21484375 C-4.57177563 -1.19442012 -3.1959424 -1.00772958 0 0 Z " fill="#B0CEED" transform="translate(151,81)"/>
<path d="M0 0 C2.015625 1.359375 2.015625 1.359375 4 4 C4.36948557 7.44751416 4.0540236 10.80439925 3.75 14.25 C3.68425781 15.18585938 3.61851562 16.12171875 3.55078125 17.0859375 C3.38601171 19.39271099 3.20181863 21.69622128 3 24 C3.99 24 4.98 24 6 24 C6 24.66 6 25.32 6 26 C3.69 25.67 1.38 25.34 -1 25 C-0.67 24.01 -0.34 23.02 0 22 C0.0806622 20.51876453 0.10761193 19.03417796 0.09765625 17.55078125 C0.09443359 16.70322266 0.09121094 15.85566406 0.08789062 14.98242188 C0.07951172 14.10134766 0.07113281 13.22027344 0.0625 12.3125 C0.05798828 11.41982422 0.05347656 10.52714844 0.04882812 9.60742188 C0.03704983 7.40488013 0.02060164 5.20247401 0 3 C-0.66 2.67 -1.32 2.34 -2 2 C-1.34 1.34 -0.68 0.68 0 0 Z " fill="#A78C44" transform="translate(185,90)"/>
<path d="M0 0 C2.015625 1.578125 2.015625 1.578125 4 4 C4.171875 7.234375 4.171875 7.234375 3.75 10.75 C3.62109375 11.92046875 3.4921875 13.0909375 3.359375 14.296875 C3.24078125 15.18890625 3.1221875 16.0809375 3 17 C3.66 17 4.32 17 5 17 C5 17.66 5 18.32 5 19 C3.35 19.66 1.7 20.32 0 21 C0.33 17.7 0.66 14.4 1 11 C0.01 10.67 -0.98 10.34 -2 10 C-1.67 9.34 -1.34 8.68 -1 8 C-1 6.824375 -1 5.64875 -1 4.4375 C-1 1 -1 1 0 0 Z " fill="#9E873D" transform="translate(107,53)"/>
<path d="M0 0 C2.5 1 2.5 1 5 2 C5.66 1.67 6.32 1.34 7 1 C7 2.65 7 4.3 7 6 C5.61217515 6.8466034 4.21430603 7.67675339 2.8125 8.5 C2.03519531 8.9640625 1.25789062 9.428125 0.45703125 9.90625 C-2.24103386 11.10729647 -4.0806982 11.20741043 -7 11 C-5.625 9.5 -5.625 9.5 -4 8 C-3.34 8 -2.68 8 -2 8 C-2 5.69 -2 3.38 -2 1 C-1.34 0.67 -0.68 0.34 0 0 Z " fill="#BCA263" transform="translate(234,109)"/>
<path d="M0 0 C3.96 0 7.92 0 12 0 C11.67 1.98 11.34 3.96 11 6 C9.68 6.33 8.36 6.66 7 7 C7 6.34 7 5.68 7 5 C6.236875 4.855625 5.47375 4.71125 4.6875 4.5625 C2 4 2 4 -1 3 C-0.67 2.01 -0.34 1.02 0 0 Z " fill="#319482" transform="translate(117,157)"/>
<path d="M0 0 C0.66 0 1.32 0 2 0 C2 0.66 2 1.32 2 2 C3.65 2.33 5.3 2.66 7 3 C7 7 7 7 6 10 C5.67 9.67 5.34 9.34 5 9 C4.34 10.98 3.68 12.96 3 15 C2.67 15 2.34 15 2 15 C1.33333333 12.33333333 0.66666667 9.66666667 0 7 C-0.20753906 6.31421875 -0.41507812 5.6284375 -0.62890625 4.921875 C-1 3 -1 3 0 0 Z " fill="#558F3E" transform="translate(109,48)"/>
<path d="M0 0 C0.33 1.32 0.66 2.64 1 4 C-2.52994613 5.17664871 -5.29455413 5.19850603 -9 5 C-9.99 4.34 -10.98 3.68 -12 3 C-12 2.34 -12 1.68 -12 1 C-7.67265609 -1.22923777 -4.71599818 -0.92470553 0 0 Z " fill="#2AA992" transform="translate(136,128)"/>
<path d="M0 0 C3.555782 1.34211975 6.79105167 2.92244697 10.08203125 4.8203125 C11.01337891 5.35527344 11.94472656 5.89023438 12.90429688 6.44140625 C13.86400391 6.99699219 14.82371094 7.55257812 15.8125 8.125 C16.79154297 8.68832031 17.77058594 9.25164062 18.77929688 9.83203125 C21.18789555 11.21844415 23.59471395 12.60785055 26 14 C23 15 23 15 20.3984375 13.7421875 C19.40070313 13.12601563 18.40296875 12.50984375 17.375 11.875 C16.3128125 11.23175781 15.250625 10.58851562 14.15625 9.92578125 C12.59390625 8.97251953 12.59390625 8.97251953 11 8 C9.2981102 7.00967619 7.59058317 6.02890805 5.875 5.0625 C5.17117187 4.66160156 4.46734375 4.26070313 3.7421875 3.84765625 C2.02317156 2.85416341 2.02317156 2.85416341 0 3 C0 2.01 0 1.02 0 0 Z " fill="#D1B571" transform="translate(167,65)"/>
<path d="M0 0 C2 3 2 3 2 5 C2.99 5 3.98 5 5 5 C5.33 4.34 5.66 3.68 6 3 C6.99 3.33 7.98 3.66 9 4 C9 4.99 9 5.98 9 7 C8.360625 7.28875 7.72125 7.5775 7.0625 7.875 C4.84793921 8.82823451 4.84793921 8.82823451 4 11 C3.01 11 2.02 11 1 11 C1 10.34 1 9.68 1 9 C0.34 8.67 -0.32 8.34 -1 8 C-0.67 5.36 -0.34 2.72 0 0 Z " fill="#688E61" transform="translate(110,39)"/>
<path d="M0 0 C2.5 2.0625 2.5 2.0625 5 5 C5.3125 8.8125 5.3125 8.8125 5 12 C3.68 12 2.36 12 1 12 C-0.3271261 8.0186217 -0.06915913 4.14954773 0 0 Z " fill="#339785" transform="translate(90,128)"/>
<path d="M0 0 C0.886875 0.103125 1.77375 0.20625 2.6875 0.3125 C-0.86641974 3.28176381 -4.49767995 5.73568536 -8.5 8.0625 C-10.06814453 8.98289063 -10.06814453 8.98289063 -11.66796875 9.921875 C-14.3125 11.3125 -14.3125 11.3125 -16.3125 11.3125 C-15.9825 10.3225 -15.6525 9.3325 -15.3125 8.3125 C-13.59937714 7.58771725 -11.88286011 6.86908318 -10.14453125 6.20703125 C-7.9908429 5.28687277 -7.9908429 5.28687277 -5.75 2.625 C-3.3125 0.3125 -3.3125 0.3125 0 0 Z " fill="#B5974E" transform="translate(228.3125,119.6875)"/>
<path d="M0 0 C0.66 0.33 1.32 0.66 2 1 C2 5.62 2 10.24 2 15 C0.35 15.33 -1.3 15.66 -3 16 C-2.5359375 14.824375 -2.5359375 14.824375 -2.0625 13.625 C-0.73664193 9.10148422 -0.35188915 4.68568186 0 0 Z " fill="#9D833B" transform="translate(212,90)"/>
<path d="M0 0 C1.67542976 0.28604898 3.34385343 0.61781233 5 1 C5.95024979 4.69541586 5.95024979 7.30458414 5 11 C4.34 11 3.68 11 3 11 C2.566875 9.63875 2.566875 9.63875 2.125 8.25 C1.23468224 5.67797092 0.28505587 3.38653234 -1 1 C-0.67 0.67 -0.34 0.34 0 0 Z " fill="#319482" transform="translate(38,108)"/>
<path d="M0 0 C0.33 0.99 0.66 1.98 1 3 C-0.75 5 -0.75 5 -3 7 C-4.32 7 -5.64 7 -7 7 C-6.75 4.625 -6.75 4.625 -6 2 C-3.84898936 0.54286376 -2.59713506 0 0 0 Z " fill="#92BDEC" transform="translate(155,85)"/>
<path d="M0 0 C0.85298376 3.67387495 1.10789471 7.0447393 1.0625 10.8125 C1.05347656 11.78832031 1.04445313 12.76414062 1.03515625 13.76953125 C1.02355469 14.50558594 1.01195313 15.24164063 1 16 C0.67 16 0.34 16 0 16 C0 12.7 0 9.4 0 6 C-1.32 6 -2.64 6 -4 6 C-4.33 6.66 -4.66 7.32 -5 8 C-4.74438677 5.6568787 -4.40729228 3.32156597 -4 1 C-2 0 -2 0 0 0 Z " fill="#C1A55B" transform="translate(126,42)"/>
<path d="M0 0 C0.33 0 0.66 0 1 0 C1.1953125 6.0546875 1.1953125 6.0546875 1 8 C0.34 8.66 -0.32 9.32 -1 10 C-1.99 10 -2.98 10 -4 10 C-4 9.01 -4 8.02 -4 7 C-6.31 7 -8.62 7 -11 7 C-7.55549263 4.70366176 -5.06187717 4.45983515 -1 4 C-0.67 2.68 -0.34 1.36 0 0 Z " fill="#C1A35C" transform="translate(134,80)"/>
<path d="M0 0 C1.98 0 3.96 0 6 0 C5.125 4.75 5.125 4.75 4 7 C2.68 6.34 1.36 5.68 0 5 C0 3.35 0 1.7 0 0 Z " fill="#2E9281" transform="translate(110,184)"/>
<path d="M0 0 C2.375 0.25 2.375 0.25 5 1 C6.3125 3.0625 6.3125 3.0625 7 5 C4 5 4 5 1.8125 3.0625 C0 1 0 1 0 0 Z M0 6 C1.65 6 3.3 6 5 6 C5 6.99 5 7.98 5 9 C2.525 8.01 2.525 8.01 0 7 C0 6.67 0 6.34 0 6 Z " fill="#AE9968" transform="translate(118,74)"/>
<path d="M0 0 C0.33 0 0.66 0 1 0 C2.20568053 4.67201205 2.09382426 9.21496292 2 14 C0.68 14 -0.64 14 -2 14 C-1.34 9.38 -0.68 4.76 0 0 Z " fill="#9F813A" transform="translate(97,57)"/>
<path d="M0 0 C0.66 0.33 1.32 0.66 2 1 C1.75 4.375 1.75 4.375 1 8 C-1.0625 9.4375 -1.0625 9.4375 -3 10 C-2.25 2.25 -2.25 2.25 0 0 Z " fill="#B49346" transform="translate(209,131)"/>
<path d="M0 0 C1.175625 0.5259375 1.175625 0.5259375 2.375 1.0625 C3.674375 1.5265625 3.674375 1.5265625 5 2 C5.66 1.67 6.32 1.34 7 1 C7 2.65 7 4.3 7 6 C5.35 6.66 3.7 7.32 2 8 C1.34 5.36 0.68 2.72 0 0 Z " fill="#B49958" transform="translate(234,109)"/>
<path d="M0 0 C2.91517292 1.07401108 4.77810176 1.77810176 7 4 C3.25 7 3.25 7 1 7 C-1 4 -1 4 -0.625 1.8125 C-0.41875 1.214375 -0.2125 0.61625 0 0 Z " fill="#C3A55D" transform="translate(240,107)"/>
<path d="M0 0 C0.99 0.33 1.98 0.66 3 1 C3 4.3 3 7.6 3 11 C2.01 11.495 2.01 11.495 1 12 C-0.3271261 8.0186217 -0.06915913 4.14954773 0 0 Z " fill="#A78A44" transform="translate(107,36)"/>
<path d="M0 0 C0.33 0 0.66 0 1 0 C1 3.3 1 6.6 1 10 C1.99 10 2.98 10 4 10 C4 10.66 4 11.32 4 12 C1.69 11.67 -0.62 11.34 -3 11 C-2.01 7.37 -1.02 3.74 0 0 Z " fill="#968138" transform="translate(187,104)"/>
<path d="M0 0 C2.31 0.33 4.62 0.66 7 1 C7.33 2.32 7.66 3.64 8 5 C6.68 5.33 5.36 5.66 4 6 C3.67 5.01 3.34 4.02 3 3 C1.50014391 1.33289654 1.50014391 1.33289654 0 0 Z " fill="#2AA690" transform="translate(121,135)"/>
<path d="M0 0 C0.99 0.33 1.98 0.66 3 1 C4.1875 4.0625 4.1875 4.0625 5 7 C4.01 6.34 3.02 5.68 2 5 C0.02 5.99 0.02 5.99 -2 7 C-1.125 2.25 -1.125 2.25 0 0 Z " fill="#938C5D" transform="translate(125,36)"/>
<path d="M0 0 C2.375 0.25 2.375 0.25 5 1 C6.7941758 3.56310828 7 4.83119306 7 8 C6.34 8 5.68 8 5 8 C3.7109375 6.25 3.7109375 6.25 2.375 4 C1.92898437 3.2575 1.48296875 2.515 1.0234375 1.75 C0.68570313 1.1725 0.34796875 0.595 0 0 Z " fill="#C6AD73" transform="translate(226,107)"/>
<path d="M0 0 C0.66 0.33 1.32 0.66 2 1 C1.67 2.32 1.34 3.64 1 5 C1.66 5.33 2.32 5.66 3 6 C-1.75 5.25 -1.75 5.25 -4 3 C-2.68 2.01 -1.36 1.02 0 0 Z " fill="#C9DBEB" transform="translate(147,87)"/>
<path d="M0 0 C2.0625 1.75 2.0625 1.75 4 4 C3.75 6.25 3.75 6.25 3 8 C2.34 7.67 1.68 7.34 1 7 C0.67 7.66 0.34 8.32 0 9 C0 6.03 0 3.06 0 0 Z " fill="#778F7A" transform="translate(133,39)"/>
<path d="M0 0 C2.64 1.65 5.28 3.3 8 5 C7.67 5.66 7.34 6.32 7 7 C4.36 5.35 1.72 3.7 -1 2 C-0.67 1.34 -0.34 0.68 0 0 Z " fill="#CCA752" transform="translate(108,74)"/>
<path d="M0 0 C1.9375 0.75 1.9375 0.75 4 2 C4.75 4.125 4.75 4.125 5 6 C3.0625 5.25 3.0625 5.25 1 4 C0.25 1.875 0.25 1.875 0 0 Z " fill="#2F9281" transform="translate(94,169)"/>
<path d="M0 0 C1.32 0.33 2.64 0.66 4 1 C3.67 1.99 3.34 2.98 3 4 C1.35 4 -0.3 4 -2 4 C-1.34 2.68 -0.68 1.36 0 0 Z " fill="#339785" transform="translate(109,143)"/>
<path d="M0 0 C0.66 0.33 1.32 0.66 2 1 C1.67 3.64 1.34 6.28 1 9 C0.34 8.34 -0.32 7.68 -1 7 C-0.625 3.375 -0.625 3.375 0 0 Z " fill="#579141" transform="translate(180,93)"/>
<path d="M0 0 C0.66 0 1.32 0 2 0 C1.48792856 3.75519057 0.7824918 6.66688525 -1 10 C-1.02689216 8.52093108 -1.04634621 7.04172517 -1.0625 5.5625 C-1.07410156 4.73878906 -1.08570313 3.91507812 -1.09765625 3.06640625 C-1 1 -1 1 0 0 Z " fill="#539042" transform="translate(206,82)"/>
<path d="M0 0 C0.66 0.33 1.32 0.66 2 1 C2 1.66 2 2.32 2 3 C1.01 3 0.02 3 -1 3 C-1 3.66 -1 4.32 -1 5 C-2.65 5 -4.3 5 -6 5 C-4.6875 3.5 -4.6875 3.5 -3 2 C-2.01 2 -1.02 2 0 2 C0 1.34 0 0.68 0 0 Z " fill="#C1B069" transform="translate(196,81)"/>
</svg>
